<?xml version="1.0" standalone="no"?>
<!DOCTYPE svg PUBLIC "-//W3C//DTD SVG 1.1//EN" "http://www.w3.org/Graphics/SVG/1.1/DTD/svg11.dtd" >
<svg xmlns="http://www.w3.org/2000/svg">
<metadata>
Created by FontForge 20120731 at Tue Sep 15 16:02:59 2015
 By Ads
</metadata>
<defs>
<font id="rmgyl" horiz-adv-x="1024" >
  <font-face 
    font-family="rmgyl"
    font-weight="500"
    font-stretch="normal"
    units-per-em="1024"
    panose-1="2 0 6 3 0 0 0 0 0 0"
    ascent="812"
    descent="-212"
    x-height="792"
    bbox="-0.514286 -224 1027 812.75"
    underline-thickness="50"
    underline-position="-100"
    unicode-range="U+0078-E65C"
  />
<missing-glyph horiz-adv-x="374" 
d="M34 0v682h272v-682h-272zM68 34h204v614h-204v-614z" />
    <glyph glyph-name=".notdef" horiz-adv-x="374" 
d="M34 0v682h272v-682h-272zM68 34h204v614h-204v-614z" />
    <glyph glyph-name=".null" horiz-adv-x="0" 
 />
    <glyph glyph-name="nonmarkingreturn" horiz-adv-x="341" 
 />
    <glyph glyph-name="x" unicode="x" horiz-adv-x="1001" 
d="M281 543q-27 -1 -53 -1h-83q-18 0 -36.5 -6t-32.5 -18.5t-23 -32t-9 -45.5v-76h912v41q0 16 -0.5 30t-0.5 18q0 13 -5 29t-17 29.5t-31.5 22.5t-49.5 9h-133v-97h-438v97zM955 310v-52q0 -23 0.5 -52t0.5 -58t-10.5 -47.5t-26 -30t-33 -16t-31.5 -4.5q-14 -1 -29.5 -0.5
t-29.5 0.5h-32l-45 128h-439l-44 -128h-29h-34q-20 0 -45 1q-25 0 -41 9.5t-25.5 23t-13.5 29.5t-4 30v167h911zM163 247q-12 0 -21 -8.5t-9 -21.5t9 -21.5t21 -8.5q13 0 22 8.5t9 21.5t-9 21.5t-22 8.5zM316 123q-8 -26 -14 -48q-5 -19 -10.5 -37t-7.5 -25t-3 -15t1 -14.5
t9.5 -10.5t21.5 -4h37h67h81h80h64h36q23 0 34 12t2 38q-5 13 -9.5 30.5t-9.5 34.5q-5 19 -11 39h-368zM336 498v228q0 11 2.5 23t10 21.5t20.5 15.5t34 6h188q31 0 51.5 -14.5t20.5 -52.5v-227h-327z" />
    <glyph glyph-name="uniE600" unicode="&#xe600;" 
d="M992 358l-390 404q-19 19 -42.5 28.5t-47.5 9.5q-51 0 -90 -38l-390 -404q-41 -48 -26 -96q0 -4 6.5 -12.5t22 -17t35.5 -8.5h58v-314q0 -54 35 -94t87 -40h166v326v15v13q0 4 0.5 10.5t2.5 9t5.5 5.5t9.5 4t14 1h128q8 0 14 -1t9.5 -4t5.5 -5.5t2.5 -9t0.5 -10.5v-13
v-15v-326h166q52 0 87 40t35 94v314h58q20 0 35.5 8.5t22 17t6.5 12.5q14 49 -26 96zM954 288h-122v-378q0 -29 -17 -49.5t-41 -20.5h-102v262q0 122 -96 122h-128q-96 0 -96 -122v-262h-102q-23 0 -40.5 22.5t-17.5 47.5v378h-122v6q0 3 1 5t3.5 5t4 4.5t4.5 5.5l391 403
q8 18 36 19h2q26 0 45 -19l390 -403q0 -4 3.5 -13.5t3.5 -12.5z" />
    <glyph glyph-name="uniE601" unicode="&#xe601;" 
d="M653 345q53 34 84 89.5t31 121.5q0 106 -75 181t-181 75t-181 -75t-75 -181q0 -66 31 -121.5t84 -89.5q-135 -39 -221 -140t-86 -225q0 -49 23.5 -84t61.5 -55.5t98.5 -32.5t121.5 -16t143 -4q70 0 120.5 2.5t105.5 9t92 20t68.5 34t46.5 52.5t15 74q0 82 -39.5 156.5
t-109 128.5t-158.5 80zM320 556q0 82 55 137t137 55t137 -55t55 -137t-55 -137t-137 -55t-137 55t-55 137zM512 -148q-87 0 -150 5t-119.5 18t-85.5 39.5t-29 65.5q0 134 112.5 227t271.5 93t271.5 -93t112.5 -227q0 -39 -29 -65.5t-85.5 -39.5t-119.5 -18t-150 -5z" />
    <glyph glyph-name="uniE602" unicode="&#xe602;" 
d="M632 318q0 53 -35 94t-85 50v246q0 27 -16.5 43.5t-43.5 16.5h-360q-27 0 -43.5 -16.5t-16.5 -43.5v-840q0 -27 16.5 -43.5t43.5 -16.5h360q27 0 43.5 16.5t16.5 43.5v306q50 9 85 50t35 94zM482 228q-18 0 -30 6v-306q0 -27 -16.5 -43.5t-43.5 -16.5h-240
q-27 0 -43.5 16.5t-16.5 43.5v720q0 27 16.5 43.5t43.5 16.5h240q27 0 43.5 -16.5t16.5 -43.5v-246q12 6 30 6q36 0 63 -27t27 -63t-27 -63t-63 -27zM932 768h-300q-27 0 -43.5 -16.5t-16.5 -43.5v-186q76 -9 128 -68t52 -136q0 -80 -51.5 -137.5t-128.5 -66.5v-246
q0 -27 16.5 -43.5t43.5 -16.5h300q27 0 43.5 16.5t16.5 43.5v840q0 27 -16.5 43.5t-43.5 16.5zM932 -72q0 -27 -16.5 -43.5t-43.5 -16.5h-180q-27 0 -43.5 16.5t-16.5 43.5v138q78 27 129 97.5t51 154.5q0 88 -50.5 156t-129.5 96v78q0 27 16.5 43.5t43.5 16.5h180
q27 0 43.5 -16.5t16.5 -43.5v-720z" />
    <glyph glyph-name="uniE603" unicode="&#xe603;" 
d="M960 -160h-896q-29 0 -46.5 17.5t-17.5 46.5v640q0 29 17.5 46.5t46.5 17.5h256v64q0 29 17.5 46.5t46.5 17.5h256q29 0 46.5 -17.5t17.5 -46.5v-64h256q29 0 46.5 -17.5t17.5 -46.5v-640q0 -29 -17.5 -46.5t-46.5 -17.5zM640 640q0 14 -9 23t-23 9h-192q-14 0 -23 -9
t-9 -23v-32h256v32zM960 480q0 29 -17.5 46.5t-46.5 17.5h-768q-29 0 -46.5 -17.5t-17.5 -46.5v-192h256v64q0 29 17.5 46.5t46.5 17.5h256q29 0 46.5 -17.5t17.5 -46.5v-64h256v192zM384 288v-64q0 -29 17.5 -46.5t46.5 -17.5h128q29 0 46.5 17.5t17.5 46.5v64
q0 29 -17.5 46.5t-46.5 17.5h-128q-29 0 -46.5 -17.5t-17.5 -46.5zM960 224h-256v-64q0 -29 -17.5 -46.5t-46.5 -17.5h-256q-29 0 -46.5 17.5t-17.5 46.5v64h-256v-256q0 -29 17.5 -46.5t46.5 -17.5h768q29 0 46.5 17.5t17.5 46.5v256z" />
    <glyph glyph-name="uniE604" unicode="&#xe604;" 
d="M480 736h-70q-114 -19 -208 -87.5t-148 -172.5t-54 -220q0 -132 63.5 -242.5t174 -174t242.5 -63.5q120 0 224.5 54t172 148t83.5 208v70h-480v480zM883 186q-24 -147 -138 -246.5t-265 -99.5q-113 0 -209 55.5t-151.5 151.5t-55.5 209q0 101 45 187.5t123.5 143
t177.5 72.5v-473h473zM544 800v-474h480q-24 183 -158.5 316.5t-321.5 157.5zM614 710q116 -33 201.5 -118.5t118.5 -201.5h-320v320z" />
    <glyph glyph-name="uniE605" unicode="&#xe605;" 
d="M987 548q-8 0 -14.5 3t-11.5 8t-8 11.5t-3 14.5q0 6 -3 11t-8 8t-11 3h-832q-9 0 -15.5 -6.5t-6.5 -15.5q0 -6 -2 -12t-5.5 -10.5t-8 -7.5t-10 -5t-11.5 -2q-15 0 -26 10.5t-11 26.5q0 40 28.5 68t67.5 28h832q26 0 48 -13t35 -35t13 -48q0 -16 -11 -26.5t-26 -10.5z
M928 -105h-832q-39 0 -67.5 28t-28.5 68q0 15 11 26t26 11t26 -11t11 -26q0 -6 3 -11t8 -8t11 -3h832q6 0 11 3t8 8t3 11q0 15 11 26t26 11t26 -11t11 -26q0 -40 -28.5 -68t-67.5 -28zM129 130v40h58v232l-64 -22l-4 41l91 31h21v-282h47v-40h-149zM394 308q-15 19 -15 49
q0 41 29 68t75 27q9 0 17.5 -1t16.5 -3t15 -5t13.5 -7.5t12 -9.5t10 -11t8.5 -12.5t6 -14.5t3.5 -16t1.5 -18q0 -22 -8 -42t-23 -38.5t-41 -40.5q-14 -12 -31.5 -29t-32.5 -34h141v-40h-215v22q52 57 112 113q53 48 53 89q0 26 -16 42t-44 16q-26 0 -42 -15t-16 -37
q0 -3 0.5 -7t1.5 -7.5t2 -7.5l4 -6q1 -4 4 -8zM729 211q13 -23 29.5 -35t38.5 -12q28 0 45.5 16.5t17.5 43.5q0 12 -4 22.5t-11 17t-16.5 10t-22.5 3.5h-23v39h23q45 0 45 47q0 22 -14.5 35.5t-38.5 13.5q-41 0 -65 -50l-36 22q33 68 101 68q44 0 71 -23t27 -63
q0 -24 -11 -41t-32 -29q52 -20 52 -73q0 -45 -30.5 -72t-78.5 -27q-68 0 -104 60zM729 211z" />
    <glyph glyph-name="uniE606" unicode="&#xe606;" 
d="M646 338q55 35 88.5 93.5t33.5 124.5q0 106 -75 181t-181 75t-181 -75t-75 -181q0 -66 33.5 -124.5t88.5 -93.5q-141 -48 -227.5 -181t-86.5 -305q0 -14 9 -23t23 -9t23 9t9 23q0 187 112.5 317.5t271.5 130.5t271.5 -130.5t112.5 -317.5q0 -14 9 -23t23 -9t23 9t9 23
q0 172 -86.5 305t-227.5 181zM320 556q0 82 55 137t137 55t137 -55t55 -137t-55 -137t-137 -55t-137 55t-55 137z" />
    <glyph glyph-name="uniE607" unicode="&#xe607;" 
d="M896 -212h-768q-29 0 -46.5 17.5t-17.5 46.5v448q0 29 17.5 46.5t46.5 17.5h64v160q0 120 84 204t204 84h64q120 0 204 -84t84 -204v-160h64q29 0 46.5 -17.5t17.5 -46.5v-448q0 -29 -17.5 -46.5t-46.5 -17.5zM768 524q0 91 -66.5 157.5t-157.5 66.5h-64
q-91 0 -157.5 -66.5t-66.5 -157.5v-160h512v160zM896 236q0 29 -17.5 46.5t-46.5 17.5h-640q-29 0 -46.5 -17.5t-17.5 -46.5v-320q0 -29 17.5 -46.5t46.5 -17.5h640q29 0 46.5 17.5t17.5 46.5v320zM448 172q0 29 17.5 46.5t46.5 17.5t46.5 -17.5t17.5 -46.5q0 -38 -64 -192
q-64 154 -64 192z" />
    <glyph glyph-name="uniE608" unicode="&#xe608;" 
d="M677 53q-76 -53 -168 -52q-8 0 -24 1q-2 0 -9 1q-6 1 -10.5 1.5t-8.5 1.5q-1 0 -11 3q-11 2 -17 4q-1 0 -3.5 1t-4.5 2q-10 3 -19 7q-3 1 -5 2q-12 5 -22 10v1h-1q-37 20 -65 49l-1 1q-10 10 -17 19q-3 3 -3 4q-30 38 -46.5 83.5t-16.5 95.5h75l-121 182l-121 -182h76
q0 -117 67 -214v-1l1 -2q3 -4 14 -18q1 -1 3 -4q2 -1 2 -2q8 -10 22 -24l2 -2q38 -38 85 -64l1 -1h2q6 -4 13 -7.5t14 -6.5q1 0 3 -1l4 -2q6 -2 11.5 -4t13.5 -5q5 -2 11 -4q3 -1 6 -1.5t5.5 -1t5.5 -1.5t5 -1q2 -1 5 -1.5t5.5 -1t4.5 -1.5q5 -1 6 -1q3 -1 6 -1t5 -0.5
t5.5 -1t4.5 -0.5q6 -1 8 -1q21 -2 38 -2q118 0 216 69q15 10 18.5 28.5t-7.5 34.5q-11 15 -29.5 18.5t-33.5 -7.5zM890 288q0 117 -67 214v2q-1 0 -1 1q-7 10 -17 21q-1 1 -2 3q-58 70 -141 106q-1 0 -2.5 0.5t-1.5 1.5q-11 4 -27 10q-8 2 -10 3q-10 3 -23 6q-2 0 -6.5 1.5
t-7.5 1.5q-1 0 -3 0.5t-3 1.5q-4 0 -18 2q-2 0 -6 0.5t-7 0.5q-7 1 -14 1.5t-16 0.5h-2h-3h-1q-38 0 -75.5 -7.5t-73 -23t-67.5 -37.5q-15 -11 -18.5 -29.5t7.5 -34t29.5 -18.5t33.5 8q76 52 167 51q14 0 25 -1q3 0 8 -1q14 -2 20 -3q3 -1 7 -2h2q12 -3 19 -5l6 -2
q4 -1 7.5 -2.5t7.5 -3t7 -2.5l1 -1h1q64 -27 109 -81v-1q65 -79 65 -182h-75l121 -181l121 181h-76zM890 288z" />
    <glyph glyph-name="uniE609" unicode="&#xe609;" 
d="M949 652h-874q-11 0 -20.5 -2.5t-17.5 -6.5t-14.5 -10.5t-11 -14.5t-7 -18t-2.5 -21v-582q0 -13 3.5 -24.5t10 -20.5t15 -15t20 -9.5t24.5 -3.5h874q16 0 29.5 5t23 14.5t15 23.5t5.5 30v582q0 11 -2.5 21t-7 18t-11 14.5t-14.5 10.5t-17.5 6.5t-20.5 2.5zM876 579h8
q2 0 6.5 -2t7.5 -5q-15 -15 -15 -22q-371 -480 -742 0q-3 3 -5.5 7t-4.5 8t-5 7q7 7 22 7h728zM949 70q0 -13 -3.5 -24.5t-10 -20.5t-15 -15.5t-20 -9.5t-24.5 -3h-728q-13 0 -24.5 3t-20 9.5t-15 15.5t-10 20.5t-3.5 24.5v436v15q437 -568 874 0v-15v-436z" />
    <glyph glyph-name="uniE60A" unicode="&#xe60a;" 
d="M512 -192q-130 0 -240.5 64.5t-175 175t-64.5 240.5t64.5 240.5t175 175t240.5 64.5t240.5 -64.5t175 -175t64.5 -240.5t-64.5 -240.5t-175 -175t-240.5 -64.5zM512 708q-176 0 -298 -122t-122 -298t122 -298t298 -122t298 122t122 298t-122 298t-298 122zM746 30
q-6 -6 -18 -6q-5 0 -15.5 -3t-20.5 -3q-5 0 -21.5 -3t-26.5 -3t-26.5 -3t-21.5 -3q-10 0 -26.5 -3t-21.5 -3h-42h-42q-30 0 -48 6q-9 0 -24 3t-24 3q-10 0 -23.5 3t-18.5 3q-7 0 -17.5 3t-12.5 3q-3 0 -9 3t-9 3v-1q-2 11 -6 19v66q0 21 18 30l36 18q36 12 42 12l36 18
q12 12 18 12l12 12q0 3 3 6t3 6v12l-54 12q-16 8 -24 24l-12 36q0 4 -3 22t-3 32v60q0 24 12 60q6 9 19 29.5t23 30.5q28 28 66 36q3 0 12 3t12 3h24h6h12q30 0 54 -12q18 -6 42 -30q18 -18 30 -42q3 -9 9 -24t9 -24t6 -24t6 -24v-42q0 -9 -3 -24t-3 -24q-3 -6 -6 -18
t-6 -18q-12 -24 -18 -30l-60 -12v-18q0 -3 3 -9t3 -9q2 -2 4 -5.5t3.5 -5t4.5 -1.5q12 0 24 -6q6 -3 15 -6t15 -6t18 -6t18 -6t15 -9t15 -9q12 -12 18 -24q0 -2 3 -9.5t3 -14.5v-30v-24zM548 138q0 3 3 6t3 6q0 6 -6 12q0 3 -1.5 4.5t-2.5 1.5h-2q-3 0 -6 3t-6 3h-30
q-3 0 -6 -3t-6 -3l-6 -6v-12q0 -6 6 -6q0 -3 1.5 -4.5t5 -3.5t5.5 -4q0 -6 -6 -18q0 -3 -3 -9t-3 -9t-3 -9t-3 -9v-12q0 -6 6 -6q0 -3 1.5 -4.5t5 -3.5t5.5 -4l12 -12q3 0 6 -3t6 -3q6 0 6 6q3 0 4.5 1.5t3.5 5t4 5.5l12 12q0 3 1.5 4.5t2.5 1.5h2v12q0 12 -6 18q0 3 -3 9
t-3 9q0 12 -6 18q0 6 6 6z" />
    <glyph glyph-name="uniE60B" unicode="&#xe60b;" 
d="M512 -192q-130 0 -240.5 64.5t-175 175t-64.5 240.5t64.5 240.5t175 175t240.5 64.5t240.5 -64.5t175 -175t64.5 -240.5t-64.5 -240.5t-175 -175t-240.5 -64.5zM512 708q-176 0 -298 -122t-122 -298t122 -298t298 -122t298 122t122 298t-122 298t-298 122zM722 78h-180
v150h90l-120 180l-120 -180h90v-150h-180q-50 0 -85 35t-35 85v60q0 56 53 103t127 47q0 63 43.5 106.5t106.5 43.5t106.5 -43.5t43.5 -106.5q74 0 127 -47t53 -103v-60q0 -50 -35 -85t-85 -35z" />
    <glyph glyph-name="uniE60C" unicode="&#xe60c;" 
d="M512 -192q-130 0 -240.5 64.5t-175 175t-64.5 240.5t64.5 240.5t175 175t240.5 64.5t240.5 -64.5t175 -175t64.5 -240.5t-64.5 -240.5t-175 -175t-240.5 -64.5zM512 708q-176 0 -298 -122t-122 -298t122 -298t298 -122t298 122t122 298t-122 298t-298 122zM632 -12h-240
q-27 0 -43.5 16.5t-16.5 43.5v360q0 34 30 54v66q0 27 16.5 43.5t43.5 16.5h180q27 0 43.5 -16.5t16.5 -43.5v-66q30 -20 30 -54v-360q0 -27 -16.5 -43.5t-43.5 -16.5zM488 510q0 8 -6 13t-12 5h-30q-18 0 -18 -18v-30q0 -12 18 -12h30q6 0 12 5t6 13v24zM608 510q0 8 -6 13
t-12 5h-30q-18 0 -18 -18v-30q0 -12 18 -12h30q6 0 12 5t6 13v24z" />
    <glyph glyph-name="uniE60D" unicode="&#xe60d;" 
d="M981 -74q7 19 7 41q0 49 -35 75l-108 96l-7 5q-5 3 -18 7.5t-27 4.5t-34.5 -7t-41.5 -23q-7 -6 -18.5 -14t-43.5 -20t-64.5 -13.5t-78 15.5t-88.5 57q-5 4 -13.5 12t-29 32t-36.5 48t-29 58t-13 65q0 30 12.5 57.5t37.5 52.5q40 31 40 74q0 11 -2.5 20.5t-8 19
t-13.5 18.5l-108 129q-13 12 -32 20.5t-46.5 5.5t-51.5 -25q-8 -6 -18 -17t-26.5 -34t-30 -62.5t-19.5 -86.5q-5 -26 -5 -61q0 -152 89 -298q65 -97 163 -188q157 -143 307 -165q5 -1 14 -2.5t31 -4t44.5 -4t53 -1t58 3.5t57 11t54 20t45.5 32t33 46zM599 -128
q-67 10 -137 48.5t-119 81.5t-95.5 95t-62.5 74l-24 33q-81 133 -81 272q0 29 4 53q3 26 9 49t12.5 39.5t14.5 31t14.5 23t13 15.5t8.5 9l3 3l3 2q32 29 65 1l106 -126q12 -14 12 -26q0 -21 -22 -37l-2 -3q-11 -10 -20 -21.5t-16.5 -23t-13 -23.5t-9 -25t-5.5 -26t-2 -26
q0 -37 14.5 -76.5t32.5 -67.5t41 -55t33 -36.5t17 -15.5q50 -48 106 -67.5t96.5 -16.5t79 18t53 25t19.5 15q18 14 35 17t22.5 1t8.5 -4l110 -97q17 -13 17 -38v-7q0 -3 -0.5 -6t-1 -5t-0.5 -3l-1 -1q-12 -26 -37.5 -44t-54.5 -26t-65.5 -11.5t-64.5 -3t-58.5 4t-41 5
t-16.5 2.5z" />
    <glyph glyph-name="uniE60E" unicode="&#xe60e;" 
d="M906 597h-35q27 44 23 84q-5 48 -51 78q-48 32 -117 15q-27 -7 -56.5 -22t-58 -35.5t-55 -46.5t-47.5 -54q-28 38 -64.5 70.5t-76 55.5t-76.5 32q-22 6 -43 6t-39.5 -5t-34.5 -16q-26 -17 -37.5 -37.5t-13.5 -40.5q-3 -40 23 -84h-34q-40 0 -67.5 -28t-27.5 -67v-122
q0 -31 18.5 -56t48.5 -35q-6 -15 -6 -32v-366q0 -39 28 -67t67 -28h671q25 0 47 13t34.5 34.5t12.5 47.5v366q0 17 -5 33q29 9 47.5 34t18.5 56v122q0 25 -12.5 47t-34.5 35t-47 13zM845 -136h-302v421h302q11 0 19 -8t8 -20v-366q0 -11 -8 -19t-19 -8zM580 597
q36 41 80 71.5t82 39.5q20 5 36 4t28 -9q4 -3 7.5 -5.5t5.5 -5t3.5 -5t2.5 -5t1 -4t1 -3.5q1 -18 -12.5 -40.5t-28.5 -37.5h-206zM933 502v-122q0 -12 -8 -20t-19 -8h-363v177h363q7 0 13.5 -3.5t10 -10t3.5 -13.5zM475 285v-421h-301q-8 0 -14 3.5t-10 10t-4 13.5v366
q0 12 8 20t20 8h301zM192 675q1 15 20 28q24 16 64 5q25 -6 53.5 -22t56.5 -39t52 -50h-206q-14 14 -28 36.5t-12 41.5zM85 502q0 11 8 19t20 8h362v-177h-362q-12 0 -20 8t-8 20v122z" />
    <glyph glyph-name="uniE60F" unicode="&#xe60f;" 
d="M628 384l-90 -115q-2 -5 -14 -19q-4 -6 -7.5 -11t-6.5 -8q-1 2 -2.5 3.5t-3 3.5t-3.5 5q-11 17 -17 24l-93 117h-74l132 -161h-119v-45h146v-77h-146v-45h146v-89h65v89h155v45h-155v77h155v45h-125l135 161h-78zM839 484q-22 19 -61 33.5t-67 26.5t-33 27q-1 2 -2 4.5
t-2 4.5q9 1 15 5t6 10q0 3 -2 5.5t-5.5 4.5t-7.5 3.5t-9 1.5h-2q1 8 5.5 17.5t12 20.5t16 25t20 37.5t20.5 51.5q-21 9 -51.5 18t-67 16t-68 3.5t-43.5 -20.5q-14 -20 -25.5 -26.5t-21.5 -3t-21 11.5t-27.5 16t-37 12t-53.5 -2.5t-74 -25.5q22 -40 46 -71.5t38 -49t18 -31.5
q-21 -1 -21 -14q0 -6 6 -10t15 -5q0 -1 -1 -2v-2q-4 -13 -23.5 -23.5t-43 -18t-53.5 -21t-49 -29.5q-21 -18 -46 -51.5t-48 -78t-44 -96t-32.5 -105.5t-14.5 -106.5t11.5 -99t43 -82.5t83 -58t128.5 -24q97 -3 158.5 -5t74.5 -2h13q28 0 246 7q226 6 260 188q26 137 -56 324
q-56 129 -118 184zM732 -164q-91 -2 -140 -2t-64 1l-15 2q-4 -1 -15.5 -1.5t-64 -1.5t-140.5 2q-64 2 -110 21.5t-70.5 50.5t-36 71.5t-8.5 86t14 93t29.5 92t39 83.5t42 68t39.5 44q15 13 48 25.5t60 22.5t49 33.5t24 58.5q1 2 1 3v1q-17 1 -17 12t17 13q-3 12 -14.5 27.5
t-31.5 44t-38 62.5q26 4 46.5 -0.5t31 -14.5t21.5 -20.5t20 -18t25.5 -7t38.5 12.5q25 32 64.5 47.5t81.5 0.5q-9 -29 -21 -58t-19 -46.5t-8 -29.5q22 1 22 -13q0 -3 -2.5 -5.5t-6.5 -4.5t-9 -2q1 -3 3 -8q-2 -29 19 -51t48.5 -33.5t60.5 -25.5t47 -26q18 -15 39.5 -44
t42.5 -68t39.5 -83.5t29 -92t13.5 -93t-8.5 -86t-35.5 -71.5t-70.5 -50.5t-110.5 -21.5z" />
    <glyph glyph-name="uniE610" unicode="&#xe610;" 
d="M289 224h446q13 0 22.5 9.5t9.5 22.5t-9.5 22.5t-22.5 9.5h-446q-9 0 -16 -4.5t-11.5 -12t-4.5 -15.5q0 -13 9.5 -22.5t22.5 -9.5zM289 97h446q13 0 22.5 9t9.5 22.5t-9.5 22.5t-22.5 9h-446q-9 0 -16 -4t-11.5 -11.5t-4.5 -16.5q0 -13 9.5 -22t22.5 -9zM289 -31h446
q13 0 22.5 9.5t9.5 22.5t-9.5 22.5t-22.5 9.5h-446q-4 0 -7.5 -1t-6.5 -2.5t-6 -3.5t-5 -5t-3.5 -6t-2.5 -6.5t-1 -7.5q0 -6 2.5 -12t7 -10.5t10.5 -7t12 -2.5zM289 351h191q13 0 22.5 9.5t9.5 22.5t-9.5 22.5t-22.5 9.5h-191q-9 0 -16 -4t-11.5 -11.5t-4.5 -16.5
q0 -13 9.5 -22.5t22.5 -9.5zM958 511q0 13 -10 22l-254 255q-5 4 -10.5 6.5t-12.5 2.5h-541q-26 0 -45 -18.5t-19 -45.5v-891q0 -26 19 -45t45 -19h764q26 0 45 19t19 45v669zM703 688l146 -146h-146v146zM862 -158h-700q-13 0 -22.5 9.5t-9.5 22.5v828q0 8 4 15.5
t11.5 11.5t16.5 4h477v-222q0 -14 9.5 -23t22.5 -9h223v-605q0 -13 -9.5 -22.5t-22.5 -9.5z" />
    <glyph glyph-name="uniE611" unicode="&#xe611;" 
d="M1021 -52q0 -53 -37.5 -90.5t-90.5 -37.5h-763q-53 0 -90.5 37.5t-37.5 90.5v381q0 34 18 64q26 83 139 296q12 20 24.5 31.5t26.5 16t23.5 5.5t26.5 1h503q17 0 26.5 -1t24 -6t27.5 -18t26 -34q31 -60 56.5 -111.5t39.5 -83t24 -54.5t13 -32l3 -10q9 -14 13.5 -30.5
t4.5 -33.5v-381zM307 680q-14 0 -21.5 -1t-19 -5t-21.5 -13.5t-20 -25.5q-17 -32 -42.5 -81t-51.5 -97h221l45 223h-90zM550 680h-90l-44 -223h184zM607 393h-191v-106q0 -22 14 -37.5t34 -15.5h95q20 0 34 15.5t14 37.5v106zM800 631q-11 17 -21.5 27.5t-22 15t-19 5.5
t-21.5 1h-95l50 -223h221q-16 30 -50 94.5t-42 79.5zM957 329q0 18 -8.5 32.5t-23 23t-32.5 8.5h-222v-143q0 -33 -23.5 -56.5t-56.5 -23.5h-159q-33 0 -56.5 23.5t-23.5 56.5v143h-222q-27 0 -45.5 -18.5t-18.5 -45.5v-381q0 -27 18.5 -45.5t45.5 -18.5h763q11 0 20.5 3
t17.5 9t14 14t9 17.5t3 20.5v381zM846 -52h-287q-3 0 -6 1t-5 3t-3.5 5t-1.5 6v32q0 5 2.5 8.5t6 5.5t7.5 2h287q6 0 11 -4.5t5 -11.5v-32q0 -3 -1.5 -6t-3.5 -5t-5 -3t-6 -1zM846 43h-159q-7 0 -11.5 4.5t-4.5 11.5v32q0 3 1 6t3 5t5 3.5t7 1.5h159q6 0 11 -5t5 -11v-32
q0 -3 -1.5 -6t-3.5 -5t-5 -3.5t-6 -1.5z" />
    <glyph glyph-name="uniE612" unicode="&#xe612;" 
d="M512 800q-138 0 -256 -69t-187 -187t-69 -256t69 -256t187 -187t256 -69t256 69t187 187t69 256t-69 256t-187 187t-256 69zM512 -160q-187 0 -317.5 130.5t-130.5 317.5t130.5 317.5t317.5 130.5t317.5 -130.5t130.5 -317.5t-130.5 -317.5t-317.5 -130.5zM851 512
q-9 10 -22 10t-23 -10l-384 -384l-204 205q-7 6 -15 8.5t-16 0t-14 -8.5q-10 -10 -10 -22.5t10 -22.5l224 -224q4 -4 9 -5t16 -1q20 0 26 6l410 410q5 4 3.5 16.5t-10.5 21.5z" />
    <glyph glyph-name="uniE613" unicode="&#xe613;" 
d="M907 -107h-790q-46 0 -79.5 33t-33.5 80v564q0 47 33.5 80t79.5 33h790q46 0 79.5 -33t33.5 -80v-564q0 -23 -9 -44t-24.5 -36t-36 -24t-43.5 -9zM963 570q0 15 -7.5 28t-20.5 20.5t-28 7.5h-790q-15 0 -28 -7.5t-20.5 -20.5t-7.5 -28v-141h902v141zM963 373h-902v-367
q0 -23 16.5 -39.5t39.5 -16.5h790q23 0 39.5 16.5t16.5 39.5v367zM117 175h226v-56h-226v56zM258 6h-141v56h141v-56z" />
    <glyph glyph-name="uniE614" unicode="&#xe614;" 
d="M863 363q-10 0 -17 -4t-11 -11t-4 -17v-408q0 -34 -22 -58.5t-55 -24.5h-593q-22 0 -44 11t-37 30.5t-15 41.5v593q0 33 31 61t65 28h338q15 0 23.5 9t8.5 23.5t-8.5 23t-23.5 8.5h-338q-68 0 -113.5 -43.5t-45.5 -109.5v-593q0 -44 21 -77.5t57 -51.5t81 -18h593
q45 0 76.5 18t48 51t16.5 78v402q0 15 -9 26.5t-23 11.5zM991 720l-52 51q-28 29 -69.5 29t-70.5 -29l-89 -108l-485 -472v-13l-64 -211l45 -38l198 70h12l466 492l109 89q28 29 28 70.5t-28 69.5zM250 18l32 90l58 -58zM397 82l-89 90l440 433l83 -83zM946 631l-64 -64
l-96 96l64 64q3 0 12.5 3t13.5 3q2 0 7 -1.5t10.5 -3t7.5 -1.5l51 -51q6 -9 4.5 -22.5t-10.5 -22.5z" />
    <glyph glyph-name="uniE615" unicode="&#xe615;" 
d="M293 275h438v-58h-438v58zM969 768h-914q-14 0 -25.5 -7t-18.5 -18.5t-7 -25.5v-85q0 -21 15 -36t36 -15h32v-721q0 -23 11 -41.5t29.5 -29.5t41.5 -11h686q17 0 32 6.5t26 17.5t17.5 26t6.5 32v721h32q10 0 19.5 4.5t16.5 11t11 16t4 19.5v85q0 10 -4 19.5t-11 16.5
t-16.5 11t-19.5 4zM878 418v-558q0 -10 -6.5 -17t-16.5 -7h-686q-10 0 -17 7t-7 17v721h733v-163zM962 640h-900v70h900v-70z" />
    <glyph glyph-name="uniE616" unicode="&#xe616;" 
d="M963 -78h-902q-23 0 -39.5 16.5t-16.5 39.5v169q0 12 8 20t20 8v3l-1 1q37 9 61.5 39.5t24.5 69.5t-24.5 69.5t-61.5 39.5l1 1v3q-6 0 -11 2t-9 6t-6 9t-2 11v169q0 11 4.5 21.5t12 18t18 12t21.5 4.5h902q15 0 28 -7.5t20.5 -20.5t7.5 -28v-169q0 -5 -1.5 -9t-4 -7.5
t-6 -6t-7.5 -4t-9 -1.5q0 -1 1 -3v-1q-15 -4 -28 -11t-23.5 -17.5t-18 -23t-12 -27t-4.5 -30.5q0 -39 24.5 -69.5t61.5 -39.5l-1 -1v-3q12 0 20 -8t8 -20v0v-169q0 -15 -7.5 -28t-20.5 -20.5t-28 -7.5zM963 129q-50 17 -81.5 61t-31.5 98t31.5 98t81.5 61v123q0 4 -1.5 8.5
t-4 8t-6 6t-8 4t-8.5 1.5h-395v-42q0 -4 -2 -7.5t-5 -5t-7 -1.5h-28q-6 0 -10 4t-4 10v42h-395q-11 0 -19.5 -8.5t-8.5 -19.5v-123q50 -17 81.5 -61t31.5 -98t-31.5 -98t-81.5 -61v-123q0 -11 8.5 -19.5t19.5 -8.5h409q-6 0 -10 4t-4 10v57q0 5 4 9.5t10 4.5h28q6 0 10 -4.5
t4 -9.5v-57q0 -6 -4 -10t-10 -4h409q11 0 19.5 8.5t8.5 19.5v123zM526 119h-28q-6 0 -10 4t-4 10v56q0 6 4 10t10 4h28q6 0 10 -4t4 -10v-56q0 -4 -2 -7t-5 -5t-7 -2zM526 260h-28q-6 0 -10 4t-4 10v56q0 6 4 10t10 4h28q6 0 10 -4t4 -10v-56q0 -6 -4 -10t-10 -4zM526 401
h-28q-6 0 -10 4t-4 10v56q0 6 4 10t10 4h28q6 0 10 -4t4 -10v-56q0 -6 -4 -10t-10 -4z" />
    <glyph glyph-name="uniE617" unicode="&#xe617;" 
d="M687 498q-5 5 -11 7.5t-13 2.5q-5 0 -9 -1.5t-8 -3.5t-7 -5l-91 -91l-90 91q-10 10 -24 10q-7 0 -13 -2.5t-11 -7.5q-10 -10 -10 -24.5t10 -24.5l56 -56h-55q-6 0 -6 -6v-56q0 -6 6 -6h103v-46h-103q-6 0 -6 -7v-55q0 -7 6 -7h103v-103q0 -4 1 -7.5t2.5 -7t4 -6.5
t5.5 -5.5t6.5 -4t7 -2.5t7.5 -1q15 0 25 10t10 24v103h103q6 0 6 7v55q0 7 -6 7h-103v46h103q6 0 6 6v56q0 6 -6 6h-55l56 56q10 10 10 24.5t-10 24.5zM968 505q-35 82 -98 145t-144 97q-42 18 -86.5 27t-90.5 9q-23 0 -46 -2.5t-45 -7t-43.5 -11t-42.5 -15.5
q-21 -8 -40 -18.5t-37 -23t-35 -26.5t-33 -29q-21 -21 -39 -44t-32.5 -48.5t-25.5 -52.5q-7 -17 -13 -34t-10 -34l-23 51q-4 9 -12.5 14.5t-18.5 5.5q-4 0 -7.5 -1t-6.5 -2q-13 -6 -18 -19t1 -26l70 -158l1 -3q1 -1 1 -2l2 -2v-1q1 0 1 -1l1 -1v0l1 -1l1 -1v0l1 -1l1 -1h1
l2 -2v0q1 0 2 -1l4 -2q1 0 2 -1h1h2v0l2 -1h1h1h1h1h1h3v0h3h1q1 1 2 1h1q1 0 2 1h1v1h1h1q1 1 3 2v0q1 1 2.5 2t2.5 2l130 114q11 9 12 23t-9 25q-10 12 -25 12q-13 0 -23 -9l-62 -54q26 135 133.5 224t246.5 89q62 0 121 -19.5t106.5 -55t83.5 -83t55.5 -106.5t19.5 -122
q0 -105 -52 -194t-141 -140.5t-193 -51.5q-143 0 -252 93q-4 4 -10 6t-12 2q-16 0 -26 -12q-9 -11 -8 -25t12 -23q61 -53 137.5 -81.5t158.5 -28.5q46 0 90.5 9t86.5 27q81 35 144 97.5t98 144.5q18 42 26.5 86.5t8.5 90.5q0 18 -1 36.5t-4 36.5t-7.5 35.5t-10 34.5
t-12.5 34z" />
    <glyph glyph-name="uniE618" unicode="&#xe618;" 
d="M228 433l-156 98l-26 -49l156 -99zM539 752h-52v-270h52v270zM357 482l-103 196l-52 -24l104 -197zM826 653l-54 25l-104 -196l52 -25zM513 457q-131 0 -248 -70t-164 -174v-271l-3 -124h829l1 105v299q-49 100 -167.5 167.5t-247.5 67.5v0zM850 -108h-363l1 465
q2 0 15.5 0.5t30 1.5t41 -2t50 -8t55.5 -17.5t58 -30.5t57.5 -47.5t54.5 -66.5v-295v0zM824 433l26 -50l129 99l-26 49zM824 433z" />
    <glyph glyph-name="uniE619" unicode="&#xe619;" 
d="M961 287v0v-1q0 -91 -36 -174t-96 -143t-143 -95.5t-174 -35.5t-174 35.5t-143 95.5t-96 143t-36 174v1v0v1q0 92 35.5 175t95.5 143.5t143.5 96t174.5 35.5t174.5 -35.5t143.5 -96t95.5 -143.5t35.5 -175v-1zM542 673v-26q0 -9 -4 -15.5t-11 -10.5t-15 -4q-12 0 -21 8.5
t-9 21.5v26q-94 -7 -173 -55.5t-127.5 -127.5t-56.5 -173h28q4 0 9 -1.5t8.5 -4.5t6 -6.5t4 -8t1.5 -9.5q0 -12 -8.5 -21t-20.5 -9h-27q11 -143 112 -244t244 -112v27q0 12 9 21t21 9t21 -9t9 -21v-27q143 11 244 112t113 244h-28q-12 0 -20.5 9t-8.5 21t8.5 21t20.5 9h28
q-12 143 -113 244t-244 112zM611 203q-5 -9 -14 -14l-313 -169q-7 -3 -14 -3q-12 0 -21 8q-15 16 -5 35l169 313q1 2 2 3.5t3 3.5l2 2q2 2 3.5 3t3.5 2l310 166q19 9 34 -6q7 -7 8.5 -16.5t-2.5 -17.5zM462 338l-126 -226l226 126l123 223z" />
    <glyph glyph-name="uniE61A" unicode="&#xe61a;" 
d="M640 -64l-64 128h326q24 0 41 17t17 41v524q0 16 -7.5 29.5t-21 21t-29.5 7.5h-780q-16 0 -29.5 -7.5t-21 -21t-7.5 -29.5v-524q0 -24 17 -41t41 -17h326l-64 -128h-384v-64h1024v64h-384zM186 128q-24 0 -41 17t-17 41v396q0 10 3 18.5t8 16t12.5 12.5t16 8t18.5 3h652
q16 0 29.5 -7.5t21 -21t7.5 -29.5v-396q0 -8 -2 -15.5t-6 -14t-9 -11.5t-11.5 -9t-14 -6t-15.5 -2h-652z" />
    <glyph glyph-name="uniE61B" unicode="&#xe61b;" 
d="M989 224q0 -60 -17.5 -117t-48 -105.5t-74.5 -89.5t-96 -69.5t-113.5 -44.5t-126.5 -16q-97 0 -185 35t-151.5 94.5t-101.5 141t-38 171.5q0 57 15.5 112t44 102t68.5 87t88.5 69t105.5 47.5t118 22.5h-1v2v68h-146q-7 0 -14 2.5t-12 7t-8 11t-3 13.5q0 14 11 24t26 10
h366q4 0 8 -1t8 -2.5t7 -4t5.5 -5.5t4.5 -6.5t2.5 -7t0.5 -7.5q0 -5 -1 -9.5t-3.5 -8t-6 -6.5t-7.5 -5.5t-8.5 -3.5t-9.5 -1h-147v-68v-1v-1q91 -6 172.5 -43.5t140 -95.5t93 -136.5t34.5 -164.5zM513 598q-109 0 -202 -50t-147 -136t-54 -187.5t54 -188t147 -136.5t202 -50
t202 50t146.5 136.5t53.5 187.5q0 76 -31.5 145.5t-85.5 119.5t-128.5 79.5t-156.5 29.5zM512.5 122q-45.5 0 -77.5 30t-32 72q0 22 9.5 41.5t26 33.5t37.5 21v176q0 14 11 24t26 10t25.5 -10t10.5 -24v-176q22 -7 38.5 -21t26 -33.5t9.5 -41.5q0 -42 -32.5 -72t-78 -30z
" />
    <glyph glyph-name="uniE61C" unicode="&#xe61c;" 
d="M836 -72h-648q-63 0 -109.5 46.5t-46.5 109.5v84q0 99 70.5 169.5t169.5 70.5q0 99 70.5 169.5t169.5 70.5t169.5 -70.5t70.5 -169.5q99 0 169.5 -70.5t70.5 -169.5v-84q0 -63 -46.5 -109.5t-109.5 -46.5zM932 168q0 76 -52 128t-128 52h-66q0 8 3 27.5t3 32.5
q0 76 -52 128t-128 52t-128 -52t-52 -128q0 -24 12 -60h-72q-76 0 -128 -52t-52 -128v-60q0 -50 35 -85t85 -35h600q50 0 85 35t35 85v60z" />
    <glyph glyph-name="uniE61D" unicode="&#xe61d;" 
d="M941 550l-179 179q-25 23 -48.5 20.5t-47.5 -27.5l-538 -537l-58 -250q-19 -38 13 -70q28 -28 71 -7l243 58l537 538q52 41 7 96zM128 -84l45 224l179 -179zM397 6l-179 179l454 454q24 24 45 24t45 -24l89 -89q24 -24 24 -45t-24 -45z" />
    <glyph glyph-name="uniE61E" unicode="&#xe61e;" 
d="M512 812q-138 0 -256 -69t-187 -187t-69 -256t69 -256t187 -187t256 -69t256 69t187 187t69 256t-69 256t-187 187t-256 69zM512 -148q-187 0 -317.5 130.5t-130.5 317.5t130.5 317.5t317.5 130.5t317.5 -130.5t130.5 -317.5t-130.5 -317.5t-317.5 -130.5zM557 300
l179 179q10 10 10 22.5t-10 22.5t-22.5 10t-22.5 -10l-179 -179l-179 179q-10 10 -22.5 10t-22.5 -10q-6 -6 -8.5 -14t0 -16t8.5 -15l179 -179l-179 -179q-10 -10 -10 -22.5t10 -22.5q3 -3 7 -5t7.5 -3.5t7.5 -1.5t8 1.5t8 3.5t7 5l179 179l179 -179q10 -10 22.5 -10
t22.5 10t10 22.5t-10 22.5z" />
    <glyph glyph-name="uniE61F" unicode="&#xe61f;" 
d="M512 768q-130 0 -240.5 -64.5t-175 -175t-64.5 -240.5t64.5 -240.5t175 -175t240.5 -64.5t240.5 64.5t175 175t64.5 240.5t-64.5 240.5t-175 175t-240.5 64.5zM512 -132q-176 0 -298 122t-122 298t122 298t298 122t298 -122t122 -298t-122 -298t-298 -122zM728 438
l-48 -36v12q0 36 -24 60t-60 24h-258q-36 0 -60 -24t-24 -60q-18 0 -30 -12t-12 -30v-108q0 -18 12 -30t30 -12v-60q0 -36 24 -60t60 -24h258q36 0 60 24t24 60v12l42 -36q18 -13 33.5 -15.5t24.5 3.5t15.5 14t8.5 15l2 7v252q3 37 -16.5 43t-40.5 -7zM410 162v252l150 -126
z" />
    <glyph glyph-name="uniE620" unicode="&#xe620;" 
d="M928 -96h-800v800q0 14 -9 23t-23 9t-23 -9t-9 -23v-832q0 -14 9 -23t23 -9h832q14 0 23 9t9 23t-9 23t-23 9zM243 -32h96q13 0 23 7.5t16 19t6 24.5v218q0 31 -25 46q-10 5 -20 5h-96q-23 0 -37 -15.5t-14 -35.5v-211q0 -25 14 -41.5t37 -16.5zM256 205q0 19 32 19
q7 0 13 -1t10 -3.5t6.5 -6t2.5 -8.5v-154q-2 -18 -32 -19q-32 0 -32 19v154zM499 -32h96q19 0 35 16t16 35v410q-9 39 -38 49q-7 2 -13 2h-96q-23 0 -37 -15.5t-14 -35.5v-403q0 -25 14 -41.5t37 -16.5zM512 397q0 19 32 19t32 -19v-346q-2 -18 -32 -19q-32 0 -32 19v346z
M755 -32h96q19 0 35 16t16 35v538q-5 21 -19 36t-32 15h-96q-15 0 -27 -7.5t-18 -19t-6 -24.5v-531q0 -25 14 -41.5t37 -16.5zM768 525q2 18 32 19q32 0 32 -19v-474q-2 -18 -32 -19q-32 0 -32 19v474z" />
    <glyph glyph-name="uniE621" unicode="&#xe621;" horiz-adv-x="1028" 
d="M515 800q-104 0 -199 -40.5t-163.5 -108.5t-109 -162.5t-40.5 -198t40.5 -198t109 -162.5t163.5 -108.5t199 -40.5t199 40.5t163.5 108.5t109 162.5t40.5 198t-40.5 198t-109 162.5t-163.5 108.5t-199 40.5zM515 -152q-90 0 -172 35t-141.5 94t-94.5 141t-35 172t35 172
t94.5 141.5t141.5 94.5t172 35t172 -35t141 -94.5t94 -141.5t35 -172q0 -72 -22 -139.5t-63 -122t-95.5 -95.5t-122 -63t-139.5 -22zM248 293q0 -27 19 -45.5t46 -18.5t45.5 18.5t18.5 45.5q0 13 -5 25t-13.5 20.5t-20.5 14t-25 5.5q-27 0 -46 -19t-19 -46zM464 293
q0 -27 19 -45.5t46 -18.5t45.5 18.5t18.5 45.5t-18.5 46t-45.5 19t-46 -19t-19 -46zM659 293q0 -17 9 -32t23.5 -23.5t32.5 -8.5q27 0 45.5 18.5t18.5 45.5t-18.5 46t-45.5 19t-46 -19t-19 -46z" />
    <glyph glyph-name="uniE622" unicode="&#xe622;" 
d="M875 700h-727q-39 0 -72.5 -19.5t-53 -53t-19.5 -72.5v-533q0 -20 5.5 -38.5t14.5 -34.5t22.5 -29.5t29.5 -23t35 -14.5t38 -5h727q60 0 102.5 42.5t42.5 102.5v533q0 60 -42.5 102.5t-102.5 42.5zM947 191h-193q-40 0 -68.5 28.5t-28.5 68.5q0 20 7.5 38t20.5 31
t31 20.5t38 7.5h193v-194zM947 458h-193q-71 0 -120.5 -49.5t-49.5 -120t49.5 -120t120.5 -49.5h193v-73q0 -11 -2.5 -22t-7 -20.5t-11.5 -18t-15 -15t-17.5 -11.5t-20.5 -7.5t-23 -2.5h-677q-41 0 -69 28.5t-28 68.5v484q0 41 28 69t69 28h677q41 0 69 -28t28 -69v-72z
M729 288q0 -10 4 -18.5t10.5 -15t15.5 -10.5t19 -4q13 0 24 6.5t17.5 17.5t6.5 24q0 20 -14 34.5t-34 14.5t-34.5 -14.5t-14.5 -34.5z" />
    <glyph glyph-name="uniE623" unicode="&#xe623;" 
d="M227 430h328v-65h-328v65zM227 267h291v-66h-291v66zM227 103h229v-65h-229v65zM129 5v425q0 10 4 16.5t9.5 9.5t15.5 5t17 2h20h98q13 0 23 9.5t10 23.5v99v19q0 5 1 14.5t3.5 14.5t7 10t11.5 6h238q18 0 33 -8.5t24 -23.5t9 -33v-257h65v257q0 54 -38.5 92.5
t-92.5 38.5h-261q-13 0 -26 -5.5t-29.5 -19t-30.5 -26.5t-38 -39l-24 -24q-2 -2 -4 -3.5t-3.5 -3.5t-2.5 -4l-4 -3l-4 -3q-1 -2 -3 -3.5t-4 -3.5q-25 -25 -38.5 -39t-26.5 -30.5t-18.5 -29t-5.5 -25.5v-458q0 -54 38.5 -92.5t92.5 -38.5h307v66h-307q-27 0 -46.5 19
t-19.5 46v0zM771 49l134 -134q36 37 49 85.5t0 97t-49 84.5zM884 245q-34 34 -79 47t-90 5l36 -186zM675 225q-57 -11 -98 -52q-55 -55 -55 -133t55 -134q20 -19 43.5 -32t49.5 -18q46 -11 92.5 2.5t81.5 47.5l-133 134z" />
    <glyph glyph-name="uniE624" unicode="&#xe624;" 
d="M730 142h-21l-110 -189q22 -33 22 -65q0 -44 -32.5 -77t-76.5 -33q-14 0 -28 4t-26 11.5t-22.5 17.5t-17.5 22t-11 26t-4 29q0 43 32.5 76t76.5 33h22l109 189q-14 15 -14 36l-234 59q-11 -28 -40 -47t-61 -19q-44 0 -77 33t-33 76.5t33 76.5t77 33h21l110 189
q-22 22 -22 65q0 29 15 54.5t40 40.5t54 15t54 -15t40 -40.5t15 -54t-15 -54t-40 -40.5t-54 -15h-22l-109 -189q14 -15 14 -29l234 -66q17 29 43.5 47.5t57.5 18.5q9 0 17.5 -1.5t16.5 -4.5t15.5 -7t14.5 -9t13 -11t11 -13t9 -14.5t7 -15.5t4.5 -16.5t1.5 -16.5
q0 -29 -15 -54.5t-40.5 -40.5t-54.5 -15zM512 -76q-16 0 -26 -10t-10 -26.5t10 -26.5t26 -10t26 10t10 27q0 8 -2.5 14.5t-7 11.5t-11.5 7.5t-15 2.5zM512 652q16 0 26 10t10 26q0 9 -2.5 15.5t-7 11.5t-11.5 7.5t-15 2.5q-16 0 -26 -10t-10 -26.5t10 -26.5t26 -10z
M293.5 361q-16.5 0 -26.5 -10t-10 -26.5t10 -26.5t26.5 -10t26.5 10t10 26.5t-10 26.5t-26.5 10zM730 288q-10 0 -20 -8.5t-16 -20.5v-7q0 -17 10 -27t26.5 -10t26.5 10t10 27q0 10 -4.5 18.5t-13 13t-19.5 4.5z" />
    <glyph glyph-name="uniE625" unicode="&#xe625;" 
d="M512 739q-73 0 -142 -22.5t-124.5 -64.5t-97.5 -97.5t-64.5 -124.5t-22.5 -142q0 -92 35.5 -175.5t96 -144t144 -96t175.5 -35.5t175.5 35.5t144 96t96 144t35.5 175.5t-35.5 175.5t-96 144t-144 96t-175.5 35.5zM857 438q31 -71 31 -150t-31 -150h-170q13 72 13 150
t-13 150h170zM399 288q0 40 3 78t9 72h202q12 -70 12 -150t-12 -150h-202q-12 70 -12 150zM813 514h-143q-14 44 -31.5 79.5t-38.5 60.5q131 -32 213 -140zM512 626q25 0 46.5 -30t37.5 -82h-168q16 52 37.5 82t46.5 30zM424 654q-21 -25 -38.5 -60.5t-31.5 -79.5h-143
q83 108 213 140zM167 438h170q-13 -72 -13 -150q0 -39 3.5 -77t9.5 -73h-170q-31 71 -31 150t31 150zM211 62h143q7 -22 14.5 -42t16.5 -37.5t19 -32.5t20 -28q-131 32 -213 140zM512 -50q-25 0 -46.5 30t-37.5 82h168q-10 -34 -23 -59.5t-29 -39t-32 -13.5zM600 -78
q43 51 70 140h143q-82 -108 -213 -140z" />
    <glyph glyph-name="uniE626" unicode="&#xe626;" 
d="M128 211l160 186l205 -77q6 -3 12 -4.5t10.5 -2t8.5 -0.5t6.5 0.5t4 1.5t2.5 2.5t1 2.5l358 314v-58q0 -14 9 -23t23 -9t23 9t9 23v128q0 14 -9 23t-23 9h-128q-14 0 -23 -9t-9 -23t9 -23t23 -9h45l-333 -282q-19 8 -48.5 19t-86 32t-70.5 26q-29 10 -38 5q-4 -2 -7 -5
l-179 -205q-9 -9 -9 -25t9 -26q23 -11 45 0zM192 -102q0 -15 -4.5 -27t-13 -20t-20.5 -12.5t-26 -4.5q-29 0 -46.5 17.5t-17.5 46.5v192q0 14 4.5 26t13 20t20.5 13t26 5q29 0 46.5 -18t17.5 -46v-192zM384 -102q0 -15 -4.5 -27t-13 -20t-20.5 -12.5t-26 -4.5
q-29 0 -46.5 17.5t-17.5 46.5v320q0 28 17.5 46t46.5 18t46.5 -18t17.5 -46v-320zM576 -102q0 -19 -8 -33.5t-22.5 -22.5t-33.5 -8q-29 0 -46.5 17.5t-17.5 46.5v256q0 14 4.5 26t13 20t20.5 13t26 5q19 0 33.5 -8t22.5 -22.5t8 -33.5v-256zM768 -96q0 -29 -17.5 -46.5
t-46.5 -17.5t-46.5 17.5t-17.5 46.5v384q0 29 17.5 46.5t46.5 17.5t46.5 -17.5t17.5 -46.5v-384zM960 -102q0 -19 -8 -33.5t-22.5 -22.5t-33.5 -8t-33.5 8t-22.5 22.5t-8 33.5v512q0 28 17.5 46t46.5 18q19 0 33.5 -8t22.5 -22.5t8 -33.5v-512z" />
    <glyph glyph-name="uniE627" unicode="&#xe627;" 
d="M896 672h-128v32q0 14 -9 23t-23 9t-23 -9t-9 -23v-32h-384v32q0 14 -9 23t-23 9t-23 -9t-9 -23v-32h-128q-28 0 -46 -16.5t-18 -41.5v-716q0 -25 18 -41.5t46 -16.5h768q28 0 46 16.5t18 41.5v716q0 16 -8 29.5t-22.5 21t-33.5 7.5zM192 608h64v-32q0 -14 9 -23t23 -9
t23 9t9 23v32h384v-32q0 -14 9 -23t23 -9t23 9t9 23v32h64q29 0 46.5 -17.5t17.5 -46.5v-64h-768v64q0 29 17.5 46.5t46.5 17.5zM832 -96h-640q-29 0 -46.5 17.5t-17.5 46.5v448h768v-448q0 -29 -17.5 -46.5t-46.5 -17.5zM256 320h-64q-14 0 -23 -9t-9 -23t9 -23t23 -9h64
q14 0 23 9t9 23t-9 23t-23 9zM448 320h-64q-14 0 -23 -9t-9 -23t9 -23t23 -9h64q14 0 23 9t9 23t-9 23t-23 9zM640 320h-64q-14 0 -23 -9t-9 -23t9 -23t23 -9h64q14 0 23 9t9 23t-9 23t-23 9zM832 320h-64q-14 0 -23 -9t-9 -23t9 -23t23 -9h64q14 0 23 9t9 23t-9 23t-23 9z
M256 192h-64q-14 0 -23 -9t-9 -23t9 -23t23 -9h64q14 0 23 9t9 23t-9 23t-23 9zM448 192h-64q-14 0 -23 -9t-9 -23t9 -23t23 -9h64q14 0 23 9t9 23t-9 23t-23 9zM640 192h-64q-14 0 -23 -9t-9 -23t9 -23t23 -9h64q14 0 23 9t9 23t-9 23t-23 9zM832 192h-64q-14 0 -23 -9
t-9 -23t9 -23t23 -9h64q14 0 23 9t9 23t-9 23t-23 9zM256 64h-64q-14 0 -23 -9t-9 -23t9 -23t23 -9h64q14 0 23 9t9 23t-9 23t-23 9zM448 64h-64q-14 0 -23 -9t-9 -23t9 -23t23 -9h64q14 0 23 9t9 23t-9 23t-23 9zM640 64h-64q-14 0 -23 -9t-9 -23t9 -23t23 -9h64q14 0 23 9
t9 23t-9 23t-23 9zM832 64h-64q-14 0 -23 -9t-9 -23t9 -23t23 -9h64q14 0 23 9t9 23t-9 23t-23 9z" />
    <glyph glyph-name="uniE628" unicode="&#xe628;" 
d="M512 677l130 -259l280 -41l-205 -198l48 -280l-253 130l-253 -130l48 280l-205 198l280 41zM512 745q-41 0 -61 -41l-110 -218l-245 -41q-35 0 -62 -41q-2 -7 -2.5 -13.5t0 -13t2.5 -12.5t4.5 -11.5t7 -10t9.5 -7.5l177 -178l-41 -245q-5 -20 3 -39t24 -30q10 -4 15 -6.5
t12.5 -4.5t13.5 -2q21 0 35 6l218 116l218 -116q7 -6 35 -6q13 0 41 13q16 11 24 30t3 39l-41 245l177 178q15 15 20.5 34t0.5 34q-5 20 -19 31t-36 17l-246 34l-116 218q-20 41 -61 41v0z" />
    <glyph glyph-name="uniE629" unicode="&#xe629;" 
d="M832 -212h-640q-53 0 -90.5 37.5t-37.5 90.5v768q0 53 37.5 90.5t90.5 37.5h640q53 0 90.5 -37.5t37.5 -90.5v-768q0 -53 -37.5 -90.5t-90.5 -37.5zM896 620q0 53 -37.5 90.5t-90.5 37.5h-512q-53 0 -90.5 -37.5t-37.5 -90.5v-640q0 -53 37.5 -90.5t90.5 -37.5h512
q53 0 90.5 37.5t37.5 90.5v640zM256 108h512v-64h-512v64zM256 300h512v-64h-512v64zM256 492h512v-64h-512v64z" />
    <glyph glyph-name="uniE62A" unicode="&#xe62a;" 
d="M896 -212h-768q-53 0 -90.5 37.5t-37.5 90.5v768q0 53 37.5 90.5t90.5 37.5h768q53 0 90.5 -37.5t37.5 -90.5v-768q0 -53 -37.5 -90.5t-90.5 -37.5zM960 620q0 53 -37.5 90.5t-90.5 37.5h-640q-53 0 -90.5 -37.5t-37.5 -90.5v-640q0 -53 37.5 -90.5t90.5 -37.5h640
q53 0 90.5 37.5t37.5 90.5v640zM384 44h448v-64h-448v64zM384 236h448v-64h-448v64zM384 428h448v-64h-448v64zM384 620h448v-64h-448v64zM192 44h64v-64h-64v64zM192 236h64v-64h-64v64zM192 428h64v-64h-64v64zM192 620h64v-64h-64v64z" />
    <glyph glyph-name="uniE62B" unicode="&#xe62b;" 
d="M928 160h-109l77 -77q29 -29 29 -67t-29 -67l-45 -45q-29 -29 -67 -29t-67 29l-77 77v-109q0 -25 -13 -47.5t-35.5 -35.5t-47.5 -13h-64q-25 0 -47.5 13t-35.5 35.5t-13 47.5v109l-77 -77q-19 -19 -43 -25.5t-48 0t-43 25.5l-45 45q-29 29 -29 67t29 67l77 77h-109
q-38 0 -67 29t-29 67v64q0 25 13 47.5t35.5 35.5t47.5 13h109l-77 77q-14 14 -21.5 31.5t-7.5 35.5t7.5 35.5t21.5 31.5l45 45q29 29 67 29t67 -29l77 -77v109q0 25 13 47.5t35.5 35.5t47.5 13h64q38 0 67 -29t29 -67v-109l77 77q29 29 67 29t67 -29l45 -45q29 -29 29 -67
t-29 -67l-77 -77h109q25 0 47.5 -13t35.5 -35.5t13 -47.5v-64q0 -38 -29 -67t-67 -29zM960 320q0 14 -9 23t-23 9h-102q-7 38 -45 115l70 71q7 6 9 14t0 16t-9 14l-45 45q-9 10 -22 10t-22 -10l-71 -70q-77 38 -115 45v102q0 14 -9 23t-23 9h-64q-10 0 -17 -4t-11 -11
t-4 -17v-102q-38 -7 -115 -45l-71 70q-9 10 -22 10t-22 -10l-45 -45q-5 -4 -7.5 -10t-2.5 -12t2.5 -12t7.5 -10l70 -71q-38 -77 -45 -115h-102q-7 0 -13 -2.5t-10 -6.5t-6.5 -10t-2.5 -13v-64q0 -10 4 -17t11 -11t17 -4h102q7 -39 45 -115l-70 -71q-7 -6 -9 -14t0 -16t9 -14
l45 -45q9 -10 22 -10t22 10l71 70q62 -37 115 -45v-102q0 -10 4 -17t11 -11t17 -4h64q14 0 23 9t9 23v102q38 7 115 45l71 -70q6 -7 14 -9t16 0t14 9l45 45q10 9 10 22t-10 22l-70 71q37 62 45 115h102q14 0 23 9t9 23v64zM512 160q-53 0 -90.5 37.5t-37.5 90.5t37.5 90.5
t90.5 37.5t90.5 -37.5t37.5 -90.5t-37.5 -90.5t-90.5 -37.5zM512 352q-29 0 -46.5 -17.5t-17.5 -46.5t17.5 -46.5t46.5 -17.5t46.5 17.5t17.5 46.5t-17.5 46.5t-46.5 17.5z" />
    <glyph glyph-name="uniE62C" unicode="&#xe62c;" 
d="M512 -224q-187 0 -317.5 130.5t-130.5 317.5q0 151 89 268t231 161v-71q-55 -19 -102 -54t-81 -81.5t-53.5 -104t-19.5 -118.5q0 -158 113 -271t271 -113t271 113t113 271q0 123 -72 221t-184 137v71q142 -44 231 -161t89 -268q0 -74 -22.5 -142.5t-63.5 -123.5t-96 -96
t-123.5 -63.5t-142.5 -22.5zM544 288h-64q-14 0 -23 9t-9 23v448q0 14 9 23t23 9h64q14 0 23 -9t9 -23v-448q0 -14 -9 -23t-23 -9z" />
    <glyph glyph-name="uniE62D" unicode="&#xe62d;" 
d="M949 652h-874q-11 0 -20.5 -2.5t-17.5 -6.5t-14.5 -10.5t-11 -14.5t-7 -18t-2.5 -21v-582q0 -13 3.5 -24.5t10 -20.5t15 -15t20 -9.5t24.5 -3.5h874q16 0 29.5 5t23 14.5t15 23.5t5.5 30v582q0 11 -2.5 21t-7 18t-11 14.5t-14.5 10.5t-17.5 6.5t-20.5 2.5zM949 70
q0 -13 -3.5 -24.5t-10 -20.5t-15 -15.5t-20 -9.5t-24.5 -3h-728q-13 0 -24.5 3t-20 9.5t-15 15.5t-10 20.5t-3.5 24.5v436q0 33 20 53t53 20h728q13 0 24.5 -3t20 -9.5t15 -15.5t10 -20.5t3.5 -24.5v-436zM417 317q22 33 22 66q0 43 -32.5 76t-76.5 33q-21 0 -41.5 -9
t-35 -24t-23.5 -35t-9 -41q0 -7 0.5 -13.5t2.5 -13t4.5 -13t6 -13t8.5 -13.5q-44 -22 -69.5 -63t-25.5 -90q0 -21 20 -37.5t52 -25t71 -12.5t78 0t71 12.5t52 25t20 37.5q0 49 -25.5 90t-69.5 63zM294 382.5q0 16.5 10 26.5t26 10t26 -10t10 -26.5t-10 -26.5t-26 -10t-26 10
t-10 26.5zM221 164q0 44 32.5 76.5t76.5 32.5q21 0 41.5 -8.5t35 -23.5t23.5 -35t9 -42q0 -7 -16 -12t-40.5 -7.5t-52.5 -2.5t-52.5 2.5t-40.5 7.5t-16 12zM621 397h219q16 0 26 10t10 26.5t-10 26.5t-26 10h-219q-16 0 -26 -10t-10 -26.5t10 -26.5t26 -10zM840 324h-146
q-16 0 -26 -10t-10 -26t10 -26t26 -10h146q16 0 26 10t10 26t-10 26t-26 10zM840 179h-292q-10 0 -18.5 -4.5t-13 -13t-4.5 -19.5q0 -8 2.5 -14.5t7.5 -11.5t11.5 -7.5t14.5 -2.5h292q10 0 18.5 4.5t13 13t4.5 18.5q0 4 -0.5 8t-2 7.5t-3.5 6.5l-4 4q-2 3 -5 5t-7 3l-6 2
q-4 1 -8 1z" />
    <glyph glyph-name="uniE62E" unicode="&#xe62e;" 
d="M768 736h-512q-28 0 -46 -19.5t-18 -44.5v-768q0 -29 17.5 -46.5t46.5 -17.5h512q29 0 46.5 17.5t17.5 46.5v768q0 25 -18 44.5t-46 19.5zM768 -32q0 -29 -17.5 -46.5t-46.5 -17.5h-384q-29 0 -46.5 17.5t-17.5 46.5v640q0 29 17.5 46.5t46.5 17.5h384q29 0 46.5 -17.5
t17.5 -46.5v-640zM448 32q0 -27 18.5 -45.5t45.5 -18.5t45.5 18.5t18.5 45.5t-18.5 45.5t-45.5 18.5t-45.5 -18.5t-18.5 -45.5zM576 576q0 -14 -9 -23t-23 -9h-192q-11 0 -21.5 9.5t-10.5 22.5t10.5 22.5t21.5 9.5h192q14 0 23 -9t9 -23zM640 576q0 -13 9.5 -22.5t22.5 -9.5
t22.5 9.5t9.5 22.5t-9.5 22.5t-22.5 9.5t-22.5 -9.5t-9.5 -22.5z" />
    <glyph glyph-name="uniE62F" unicode="&#xe62f;" 
d="M505 -179q-96 0 -183.5 37.5t-151 101t-101 151t-37.5 183.5t37.5 184t101 151t151 101t183.5 38q77 0 149.5 -24t130.5 -68t102 -102t68 -130.5t24 -149.5t-24 -149t-68 -130.5t-102 -102t-130.5 -67.5t-149.5 -24zM505.5 695q-108.5 0 -201 -54t-146 -146t-53.5 -200.5
t53.5 -201t146 -146t201 -53.5t201 53.5t146 146t53.5 201t-53.5 200.5t-146 146t-201 54zM506 -33q-16 0 -26.5 10.5t-10.5 25.5v364q0 7 3 14t8 12t11.5 7.5t14.5 2.5q15 0 25.5 -10.5t10.5 -25.5v-364q0 -7 -3 -14t-8 -12t-11.5 -7.5t-13.5 -2.5zM651 258h-291
q-6 0 -11.5 2t-10 5t-8 7.5t-5.5 10t-2 11.5t2 11.5t5.5 10t8 8t10 5.5t11.5 2h291q10 0 18.5 -5t13 -13.5t4.5 -18.5q0 -7 -2.5 -14t-7.5 -11.5t-12 -7.5t-14 -3zM505 331q-15 0 -25.5 10.5t-10.5 25.5t11 26l145 145q11 11 26 11t26 -10.5t11 -25.5t-11 -26l-146 -146
q-3 -3 -7.5 -5.5t-9 -3.5t-9.5 -1zM506 331q-15 0 -26 10l-146 146q-7 7 -9.5 16.5t0 19t9.5 16.5q11 10 26 10t26 -10l145 -146q11 -11 11 -26t-10.5 -25.5t-25.5 -10.5zM651 112h-291q-8 0 -14.5 3t-11.5 8t-8 11.5t-3 14t3 14.5t8 11.5t11.5 7.5t14.5 3h291q10 0 18.5 -5
t13 -13t4.5 -18q0 -6 -1.5 -11.5t-5 -10t-8 -8t-10 -5.5t-11.5 -2z" />
    <glyph glyph-name="uniE630" unicode="&#xe630;" 
d="M906 -162h-788q-25 0 -40.5 15.5t-15.5 40.5v563q0 25 15.5 40.5t40.5 15.5h169q0 93 66 159t159 66t159 -66t66 -159h169q25 0 40.5 -15.5t15.5 -40.5v-563q0 -25 -15.5 -40.5t-40.5 -15.5zM512 682q-72 0 -120.5 -48.5t-48.5 -120.5h338q0 72 -48.5 120.5t-120.5 48.5z
M906 400q0 26 -15.5 41.5t-40.5 15.5h-676q-25 0 -40.5 -15.5t-15.5 -41.5v-450q0 -25 15.5 -40.5t40.5 -15.5h676q25 0 40.5 15.5t15.5 40.5v450zM416 -44l-242 242l40 39l202 -202l360 360l40 -39z" />
    <glyph glyph-name="uniE631" unicode="&#xe631;" 
d="M512 383l-256 205v-115l256 -205l256 205v115zM256 332v-115l256 -205l256 205v115l-256 -205z" />
    <glyph glyph-name="uniE632" unicode="&#xe632;" 
d="M768 12v115l-256 205l-256 -205v-115l256 205zM512 473l256 -205v115l-256 205l-256 -205v-115z" />
    <glyph glyph-name="uniE633" unicode="&#xe633;" 
d="M544 333l-13 19q-6 6 -19 6q-13 -1 -19 -6l-13 -13l-205 -205q-19 -19 0 -38l13 -13q19 -19 38 0l186 186l186 -186q19 -19 38 0l13 13q19 19 0 38zM512 800q-138 0 -256 -69t-187 -187t-69 -256t69 -256t187 -187t256 -69t256 69t187 187t69 256t-69 256t-187 187
t-256 69zM512 -160q-187 0 -317.5 130.5t-130.5 317.5t130.5 317.5t317.5 130.5t317.5 -130.5t130.5 -317.5t-130.5 -317.5t-317.5 -130.5zM256 512v-64h512v64h-512z" />
    <glyph glyph-name="uniE634" unicode="&#xe634;" 
d="M149 663q-73 -73 -111 -168.5t-38 -192.5t38 -192.5t111 -168.5q32 -32 70 -58t78 -44t82.5 -29.5t86.5 -15t87.5 0t86 15t83 29.5t78 44t70.5 58q73 73 111 168.5t38 192.5t-38 192.5t-111 168.5q-98 98 -228.5 132.5t-262 0t-231.5 -132.5zM826 -14q-88 -88 -202 -119
t-228.5 0t-202.5 119t-119 202t0 228.5t119 202.5t202.5 119t228.5 0t202 -119q123 -123 133 -292q11 -168 -95 -299q-18 -22 -38 -42zM545 331v256q0 14 -9 23t-23 9q-3 0 -6 -0.5t-6 -1.5t-5 -3l-4 -2l-4 -4t-3 -4l-2 -6q-1 -2 -1.5 -5t-0.5 -6v-256h-256q-17 0 -24 -20
q-1 -6 -1 -12q0 -14 8.5 -23t23.5 -9h255v-255q0 -15 9 -23.5t23 -8.5q7 0 13 2t10.5 6.5t6.5 10.5t2 13v255h256q7 0 13 2.5t10 6.5t6.5 10t2.5 13q0 15 -9 23.5t-23 8.5h-262zM545 331z" />
    <glyph glyph-name="uniE635" unicode="&#xe635;" 
d="M512 768q-130 0 -240.5 -64.5t-175 -175t-64.5 -240.5t64.5 -240.5t175 -175t240.5 -64.5t240.5 64.5t175 175t64.5 240.5t-64.5 240.5t-175 175t-240.5 64.5zM512 -156q-184 0 -314 130t-130 314t130 314t314 130t314 -130t130 -314t-130 -314t-314 -130zM296 432v-90
l216 -198l216 192v96l-216 -192z" />
    <glyph glyph-name="uniE636" unicode="&#xe636;" 
d="M792 -148h-560q-45 0 -84 22.5t-61.5 61.5t-22.5 84v0v560q0 69 49.5 118.5t118.5 49.5h112v-112h-112q-23 0 -39.5 -16.5t-16.5 -39.5v-560q0 -23 16.5 -39.5t39.5 -16.5h560q23 0 39.5 16.5t16.5 39.5v560q0 23 -16.5 39.5t-39.5 16.5h-112v112h112q45 0 84 -22.5
t61.5 -61.5t22.5 -84v-560q0 -23 -6 -44.5t-17 -40t-26.5 -34t-34 -26.5t-40 -17t-44.5 -6zM512 300l-168 224h112v224h112v-224h112z" />
    <glyph glyph-name="uniE637" unicode="&#xe637;" 
d="M512 800q-34 0 -67.5 -5.5t-64 -15.5t-60 -25t-55 -33.5t-48.5 -41t-42 -48t-34 -54t-25.5 -58.5t-16 -63t-5.5 -66q0 -46 23 -103t58.5 -109t56 -78.5t35.5 -44.5q35 -40 52 -67q39 -60 134 -181q11 -14 26.5 -22t32.5 -8q36 1 60 30q95 121 134 181q7 11 11 17t14 18
t27 32q11 12 25 30t42.5 58t50 78t38 85t16.5 84q0 111 -56 205.5t-152 149.5t-210 55zM708 96q-38 -44 -57 -73q-37 -57 -131 -177q-2 -3 -8 -4l-8 4q-94 120 -130 177l-9 13q-3 5 -9.5 14t-15.5 19.5t-23 26.5q-63 72 -110 155.5t-47 138.5q0 94 47 173.5t128.5 126
t176.5 46.5q72 0 137.5 -27.5t112.5 -74t75 -110.5t28 -134q0 -55 -47 -138t-110 -156zM512 544q-66 0 -113 -47t-47 -113q0 -22 6 -42.5t16.5 -38t25 -32.5t32 -25t38.5 -16t42 -6q44 0 81 21.5t58 58.5t21 80q0 66 -46.5 113t-113.5 47zM512 288q-39 0 -67.5 28t-28.5 68
t28.5 68t67.5 28q20 0 37.5 -7.5t30.5 -20.5t20.5 -30.5t7.5 -37.5q0 -40 -28 -68t-68 -28zM512 288z" />
    <glyph glyph-name="uniE638" unicode="&#xe638;" 
d="M481 496q0 14 10 24t24 10q3 0 6.5 -0.5t6.5 -1.5t6 -3t5 -5l4 -4q2 -3 3.5 -6t2 -6.5t0.5 -7.5v-517q0 -14 -10 -24t-24 -10t-24 10t-10 24v517zM320 496q0 3 0.5 6t1.5 5.5t2 4.5t2.5 4.5t3.5 3.5l4 4q2 1 4.5 2.5t5 2.5t4.5 1h6q4 0 8 -0.5t7 -2.5l6 -4q3 -2 5.5 -5
t4 -6.5t2.5 -7.5t1 -8v-517q0 -10 -4.5 -17.5t-12.5 -12t-17 -4.5q-14 0 -24 10t-10 24v517zM641 496q0 14 10 24t25 10q9 0 17 -4.5t12.5 -12t4.5 -17.5v-517q0 -14 -10 -24t-24 -10q-15 0 -25 10t-10 24v517zM924 664h-183v43q0 25 -20 42.5t-48 17.5h-316
q-29 0 -48.5 -17.5t-19.5 -42.5v-43h-189q-10 0 -17.5 -4.5t-12.5 -12.5t-5 -17q0 -14 10 -24t25 -10h71v-720q0 -28 20 -47.5t49 -19.5h550q28 0 48 19.5t20 47.5v720h66q15 0 25 10t10 24t-10 24t-25 10zM357 698h316v-34h-316v34zM754 -122l-479 -2q-16 0 -25 9.5
t-10 19.5v10v648q0 18 8 26t17 8l8 -1h477h4q3 0 10 -1.5t12 -4.5t9.5 -10t4.5 -17v-112v-215q0 -114 0.5 -214t0.5 -111q0 -14 -9.5 -22.5t-18.5 -9.5z" />
    <glyph glyph-name="uniE639" unicode="&#xe639;" 
d="M992 288q0 130 -64.5 240.5t-175 175t-240.5 64.5t-240.5 -64.5t-175 -175t-64.5 -240.5t64.5 -240.5t175 -175t240.5 -64.5t240.5 64.5t175 175t64.5 240.5zM956 288q0 -184 -130 -314t-314 -130t-314 130t-130 314t130 314t314 130t314 -130t130 -314zM512 336
l216 -192v96l-216 192l-216 -192v-90z" />
    <glyph glyph-name="uniE63A" unicode="&#xe63a;" 
d="M320 -84l307 384l-307 384h77l307 -384l-307 -384h-77z" />
    <glyph glyph-name="uniE63B" unicode="&#xe63b;" 
d="M627 -84l-307 384l307 384h77l-307 -384l307 -384h-77z" />
    <glyph glyph-name="uniE63C" unicode="&#xe63c;" 
d="M461 -52l307 320l-307 384h-205l307 -384l-307 -320h205z" />
    <glyph glyph-name="uniE63D" unicode="&#xe63d;" 
d="M768 -52l-307 320l307 384h-205l-307 -384l307 -320h205z" />
    <glyph glyph-name="uniE63E" unicode="&#xe63e;" 
d="M922 748h-820q-28 0 -49 -21t-21 -49v-756q0 -14 5.5 -27t15 -22.5t22.5 -15t27 -5.5h826q29 0 49.5 21t20.5 49v756q-2 11 -6.5 21.5t-12 19.5t-16.5 15.5t-19.5 10t-21.5 3.5zM922 -78h-820v615h826v-615h-6zM557 127l19 224v122h-134v-122l19 -224h96zM461 -7h102v96
h-102v-96z" />
    <glyph glyph-name="uniE63F" unicode="&#xe63f;" 
d="M506 -206l-43 24l-8 4q-195 105 -254 163q-33 33 -56.5 73t-29.5 59.5t-10 33.5l-1 10l-2 497l406 131l406 -132l-2 -498q-3 -17 -9.5 -38t-30 -61.5t-57.5 -74.5q-71 -71 -277 -174zM171 608l2 -444q2 -10 6.5 -23.5t23.5 -46.5t46 -60q51 -52 239 -152l18 -10h1
q28 14 65 33.5t102 60t93 67.5q28 29 47.5 63t23.5 47.5t6 21.5l2 443l-338 109zM546 297h205v68h-205v205h-68v-205h-205v-68h205v-205h68v205z" />
    <glyph glyph-name="uniE640" unicode="&#xe640;" 
d="M918 729h-822q-12 0 -22.5 -4.5t-18.5 -12t-12.5 -18.5t-4.5 -23v-555q0 -24 17 -41t41 -17h110v-166q0 -19 17 -27q3 -1 6 -1.5t6 -0.5q4 0 12 1t16 3t11 4l170 187h474q24 0 41 17t17 41v555q0 24 -17 41t-41 17zM909 124h-504l-135 -152v152h-163v539h802v-539z
M234 361h547q12 0 20.5 10.5t8.5 22.5t-8.5 22.5t-20.5 10.5h-547q-8 0 -14.5 -5t-10.5 -12.5t-4 -15.5q0 -12 8.5 -22.5t20.5 -10.5zM235 496h547q12 0 20.5 10.5t8.5 22.5t-8.5 22t-20.5 10h-547q-12 0 -20.5 -10t-8.5 -22q0 -22 19 -31q6 -2 10 -2zM612 293h-377
q-12 0 -20.5 -11.5t-8.5 -23.5t9 -21.5t21 -9.5h378q6 0 11 2.5t8.5 7t5.5 10.5t2 12q0 8 -4 16t-10.5 13t-14.5 5z" />
    <glyph glyph-name="uniE641" unicode="&#xe641;" 
d="M987 -101l-219 218q40 52 62 114t22 130q0 108 -53.5 200t-145 145t-199.5 53t-199.5 -53t-145 -145t-53.5 -200t53.5 -199.5t145 -145t199.5 -53.5q137 0 244 84l218 -218q15 -15 35 -15q10 0 19 4t17 11q14 14 14 35t-14 35zM156 361q0 124 87.5 211.5t210.5 87.5
t210.5 -87.5t87.5 -211t-87.5 -211t-210.5 -87.5q-35 0 -68.5 8t-62.5 22.5t-55 35t-46.5 46.5t-35.5 55t-22.5 62.5t-7.5 68.5z" />
    <glyph glyph-name="uniE642" unicode="&#xe642;" 
d="M-18 818zM848 -118h-560v57h448q15 0 28 8t20.5 21.5t7.5 28.5v580h56v-695zM258 55q-13 0 -21 9t-8 21t8 20t21 8h394q12 0 20 -8t8 -21q0 -7 -4 -13.5t-10 -11t-14 -4.5h-394zM258 287h394q12 0 20 -8.5t8 -20.5q0 -6 -2.5 -11.5t-6 -9t-8.5 -6t-11 -2.5h-394
q-9 0 -15 4t-10 11t-4 14q0 12 8 20.5t20 8.5h1zM258 461h394q12 0 20 -8.5t8 -20.5t-8 -20.5t-20 -8.5h-394q-13 0 -21 8.5t-8 20.5t8 20.5t21 8.5zM425 635h227q12 0 20 -8.5t8 -20.5t-8 -20.5t-20 -8.5h-227q-5 0 -10 2.5t-9.5 6t-6.5 8.5t-2 12q0 21 20 28q5 1 8 1z
M848 635h-56v57q0 24 -16.5 41t-39.5 17h-561q-23 0 -39.5 -17t-16.5 -41v-695q0 -23 16.5 -40.5t39.5 -17.5h57v-57q0 -24 16 -41t39 -17h561q12 0 22 4.5t18 12t12 18.5t4 23v695q0 12 -4 22.5t-12 18t-18.5 12.5t-21.5 5z" />
    <glyph glyph-name="uniE643" unicode="&#xe643;" 
d="M973 400h-95q-1 3 -2 7.5t-2 8t-2 6.5q-3 8 -8 14.5t-12 11.5l-10 6q-5 3 -11 6q-5 2 -12 2q-273 1 -610 0q-13 0 -29 -11q-14 -11 -22 -25q-3 -6 -4.5 -10.5t-1.5 -10.5v-342q0 -17 14 -35q13 -16 32 -22l12 -2h259h6v-92h-5h-339q-34 0 -56.5 22.5t-22.5 55.5v587
q0 33 22.5 56t56.5 23h763q11 0 21.5 -3t19 -8t16 -12t12.5 -16t7.5 -19t2.5 -22v-170v-6zM715 428q70 0 129.5 -34.5t94 -94t34.5 -129.5q0 -107 -75.5 -182.5t-182.5 -75.5t-182.5 75.5t-75.5 182.5q0 70 34.5 129.5t94 94t129.5 34.5zM583 132v-63h85v-75h95v74h84v64
h-84v24h84v63h-71q23 30 73 95h-98q-1 0 -2 -0.5t-2 -1.5q-19 -23 -29 -35q-3 -4 -7 0q-16 20 -26 33q-4 4 -7 4h-92q-2 0 -5 -1q11 -13 35 -45t37 -49h-71v-62h86v-25h-85z" />
    <glyph glyph-name="uniE644" unicode="&#xe644;" 
d="M901 -103h-778q-55 17 -74 74v476q2 4 5 10.5t5 11.5t5 11t7 10q23 32 79 32h190v37q3 52 29.5 81.5t74.5 34.5q67 7 135 0q95 -10 103 -110q0 -2 2 -43h20h22h21h21h21h21h20h21q44 0 64 -5.5t32.5 -21.5t27.5 -54v-464q-17 -62 -74 -80zM512 386q-51 -2 -91 -24
t-63 -61.5t-23 -89.5q0 -77 48.5 -126t127.5 -50q38 0 70.5 12.5t56 35t36.5 55.5t14 72q0 75 -48.5 123t-127.5 53zM621 524q9 53 -8 74.5t-68 21.5h-71q-48 0 -65.5 -24t-4.5 -72h217zM514 75q-5 3 -13.5 10t-15 11.5t-13.5 7.5q-21 10 -30 26.5t-10 40.5q10 3 16 3.5
t10.5 -4t6.5 -14.5q2 -6 6.5 -11.5t11 -12.5t9.5 -10h1l1 1h1l1 1l1 1h1l1 1l2 1v77q-25 10 -27 11q-39 16 -37 58q1 10 4 18.5t8.5 15.5t12.5 12.5t17 9.5q2 1 35 20q4 -10 16.5 -17t25 -11.5t21 -16.5t6.5 -31q-12 -8 -20 -3t-12 13.5t-12 15t-19 2.5q0 -4 -0.5 -12.5
t-0.5 -15t0.5 -14.5t1.5 -14q1 -11 21 -18q49 -17 48 -59q0 -26 -12 -41.5t-39 -26.5q-3 -1 -5 -3l-6 -4q-2 -2 -4 -4.5t-3.5 -5t-3.5 -4.5t-3 -4zM521 125q39 3 39 38q-1 16 -10.5 25t-28.5 11v-74zM502 307q-36 -8 -34 -38q1 -10 5.5 -16t11.5 -9t17 -4v67z" />
    <glyph glyph-name="uniE645" unicode="&#xe645;" 
d="M131 -38v668h86v-668h-86zM380 -38v668h233q93 0 116 -8q15 -3 28.5 -7.5t25.5 -10t24 -13t23 -16.5q53 -42 78 -116q12 -35 17.5 -74.5t5.5 -80.5q0 -14 -0.5 -26t-1.5 -24.5t-2.5 -21.5t-3.5 -21.5t-3.5 -19.5t-3.5 -20q-11 -52 -47 -100q-17 -24 -30.5 -37.5
t-31.5 -25.5q-28 -18 -78 -31q-31 -7 -108 -7h-241v-8zM465 39h140q55 0 101 16q11 3 22.5 9t23.5 13t16 9q37 37 47 85q15 78 15 133q0 111 -31 163q-30 50 -85 77q-48 16 -117 16h-132v-521z" />
    <glyph glyph-name="uniE646" unicode="&#xe646;" 
d="M494 681zM570 683zM930 402h-77l52 49l-243 259l-48 -46l-107 67l-207 -329h-207q-12 0 -20 -8t-8 -19v-496q0 -8 4 -14t10 -9.5t14 -3.5h837q8 0 14.5 3.5t10 9.5t3.5 14v496q0 11 -8 19t-20 8zM862 452l-54 -50h-429l282 264zM516 689l74 -47l-250 -234zM96 -118v489
h832v-128h-277q-5 0 -9.5 -2.5t-7.5 -7t-3 -9.5v-155q0 -4 2 -7.5t4.5 -6t6 -4t7.5 -1.5h277v-168h-832zM928 80h-266v132h266v-132zM704 163h36v-36h-36v36z" />
    <glyph glyph-name="uniE647" unicode="&#xe647;" 
d="M850 734h-677q-45 0 -77 -35.5t-32 -85.5v-649q0 -25 9 -47.5t23.5 -38.5t34.5 -25.5t42 -9.5h677q18 0 34.5 6t30 17t23.5 26t15.5 33.5t5.5 38.5v649q0 25 -8.5 47t-23 38.5t-35 26t-42.5 9.5zM928 -36q0 -38 -22.5 -64.5t-55.5 -26.5h-677q-32 0 -55 26.5t-23 64.5
v649q0 24 10.5 45t28.5 33t39 12h677q16 0 30.5 -7t25 -19t16.5 -29t6 -35v-649zM752 218q-10 0 -20 -2.5t-18 -7.5t-15 -12t-12 -15t-7.5 -18t-2.5 -20q0 -31 22 -53t53 -22t53 22t22 53t-22 53t-53 22zM752 99q-18 0 -31 13t-13 31q0 7 2 14t6 12.5t9.5 9.5t12.5 6t14 2
q12 0 22.5 -5.5t16 -16t5.5 -22.5t-5.5 -22t-16 -16t-22.5 -6zM591 218q-12 0 -23.5 -3.5t-20.5 -10.5t-16 -16.5t-11 -21t-4 -23.5q0 -31 22 -53t53 -22t53 22t22 53t-22 53t-53 22zM591 99q-18 0 -31 13t-13 31t13 31t31 13t31 -13t13 -31t-13 -31t-31 -13zM302 218
q-31 0 -53 -22t-22 -53t22 -53t53 -22t53 22t22 53q0 44 -39 66q-17 9 -36 9zM302 99q-19 0 -32 13t-13 31q0 6 2 12t4.5 10.5t7 9t9 7t10.5 4t12 1.5q18 0 31 -13t13 -31q0 -12 -6 -22t-16 -16t-22 -6zM424 396h-177q-49 0 -77 -54q-6 -11 -10.5 -24t-6 -18t-1.5 -8l-1 -2
v-189h67v31h-36v155q2 8 5 17.5t10.5 25t20.5 25.5t29 10h147v-264h98v31h-68v264zM831 512h-324q-15 0 -28.5 -7.5t-21 -20.5t-7.5 -29v-175q0 -24 16.5 -40.5t40.5 -16.5h324q11 0 21.5 4.5t18.5 12t12.5 18t4.5 22.5v175q0 16 -8 29t-21 20.5t-28 7.5zM857 280
q0 -7 -3.5 -13.5t-9.5 -10t-13 -3.5h-324q-5 0 -10 2t-8.5 6t-5.5 8.5t-2 10.5v175q0 5 2 10t5.5 8.5t8.5 5.5t10 2h324q10 0 18 -7.5t8 -18.5v-175z" />
    <glyph glyph-name="uniE648" unicode="&#xe648;" 
d="M552 158v84q4 -2 7.5 -4.5t5.5 -6.5q11 -14 10 -31h35q0 28 -18 52q-13 18 -40 22v34h-31v-33q-22 -4 -39 -19q-22 -20 -22 -52q0 -24 16 -40q14 -16 45 -28v-98q-3 1 -6.5 2.5t-6.5 3.5t-5 4q-14 13 -14 36v9h-36v-11q0 -32 22 -54q17 -17 46 -20v-27h31v27q26 4 43 20
q23 20 23 56q0 24 -19 44q-17 17 -47 30zM521 172q-6 3 -10.5 6.5t-7.5 5.5q-4 5 -6 11t-2 13q0 17 11 27q3 3 7 5t8 3v-71zM571 49q-4 -4 -8.5 -6.5t-10.5 -4.5v83q5 -3 9 -6l8 -6q6 -6 9.5 -13.5t3.5 -14.5q0 -19 -11 -32zM905 176q-8 85 -70 141q-35 31 -115 69
q-10 5 -15.5 8t-13.5 7t-14.5 7.5t-11.5 6.5q12 4 26 6t36.5 4t43 0.5t44.5 -8t43 -17.5l16 26q-59 37 -150 30q-19 -2 -39 -5q2 1 4 3q15 11 28 19.5t27 15.5t26.5 10.5t26 4t26.5 -2.5t27.5 -10.5t28.5 -18.5l19 24q-26 20 -51.5 29.5t-47.5 9t-45.5 -8.5t-42.5 -19.5
t-41 -28.5q-7 -5 -14.5 -11t-16.5 -13q0 -1 -1 -2h-1q-5 33 15.5 74t50.5 79q7 8 20 24l9 9h-1v1q20 24 11 42q-10 22 -58 22q-39 0 -95 -11q-4 -1 -7 -1.5t-6 -0.5q-8 0 -10 4q-2 3 -4 18q0 6 -1 9t-2 8t-3 9q-9 18 -28 21q-10 2 -18 3t-14 1q-9 0 -15.5 -2t-11 -4.5
t-8 -7.5t-5.5 -8l-4 -9l-2 -3q0 -1 -1 -3.5t-2 -4t-2 -3.5t-2.5 -4t-3 -4.5t-3.5 -4.5q-9 -9 -24.5 -17t-32.5 -13t-31 -7.5t-24 -3.5l-31 -4l21 -22v-1h1q8 -9 20 -23.5t33 -44.5t33 -62.5t8 -57.5q-2 -9 -8.5 -17t-20 -16.5t-24 -14t-30.5 -15.5q-16 -7 -24 -11
t-22.5 -11.5t-24.5 -14t-22 -15t-22 -17.5q-62 -56 -70 -141q-16 -166 62 -254q61 -69 164 -73q63 -2 116 -2h21h19h40q24 0 53 0.5t63 1.5q103 4 164 73q77 88 62 254zM357 638q74 15 102 47q5 6 9.5 13.5t6.5 11t5 10.5q4 9 6 10l10 2q10 0 26 -3q3 0 4 -1t2 -3t2 -6
t2 -11q2 -21 8 -30q3 -5 7 -9t12 -7t17 -3q3 0 6 0.5t6.5 1t6.5 0.5q53 11 89 11q22 0 30 -4l-6 -10l-2 -2l-3 -3q-1 -1 -2 -3q0 -1 -1 -1q-10 -12 -21 -25q-21 -25 -40 -36.5t-49 -14.5h-7q-12 0 -16.5 3.5t-10.5 13.5q-16 29 -45 29h-3q-6 0 -11.5 -1t-10 -3t-8 -4t-7 -5
t-6 -5t-5 -5.5t-4 -5.5t-4.5 -5q-8 -12 -11 -12q-2 0 -4 1q-11 3 -33.5 21.5t-46.5 42.5zM607 444q0 -2 0.5 -4t0.5 -4q-19 -6 -43.5 -7.5t-48 2t-41.5 7.5t-35 10q5 44 -25 103q4 -3 7.5 -4.5t6.5 -2.5h6q3 -1 6 -1q6 0 11.5 2t10.5 6t7.5 7t6.5 9q8 11 14.5 16t17.5 5h2
q8 0 11 -2.5t8 -10.5q5 -10 9 -15t16 -11.5t28 -6.5q5 0 10 1q11 1 20.5 3t17.5 5q-32 -62 -24 -107zM820 -58q-17 -19 -39 -32.5t-48 -21t-55 -8.5q-32 -1 -59 -1.5t-51 -0.5v2h-2q-1 0 -5 -0.5t-9 -0.5t-13 -0.5t-16 -0.5q-32 1 -45 2l-1 -2q-23 0 -50.5 0.5t-58.5 1.5
q-90 3 -142 62q-69 78 -54 231q3 32 15 59t26 44t39.5 34.5t41 25.5t45.5 23q25 12 38 18.5t28.5 18t23.5 23.5q66 -22 122 -22q42 0 73 13q19 -21 83 -51q25 -12 38 -19t35 -20t34.5 -26t27 -31t22.5 -40.5t10 -49.5q15 -153 -54 -231z" />
    <glyph glyph-name="uniE649" unicode="&#xe649;" 
d="M512 -213q-102 0 -194.5 40t-159.5 107t-107 159.5t-40 194.5t40 194.5t107 159.5t159.5 107t194.5 40t194.5 -40t159.5 -107t107 -159.5t40 -194.5t-40 -194.5t-107 -159.5t-159.5 -107t-194.5 -40zM512 756q-95 0 -181.5 -37.5t-149 -100t-100 -149t-37.5 -181.5
t37.5 -181.5t100 -149t149 -100t181.5 -37.5t181.5 37.5t149 100t100 149t37.5 181.5q0 42 -7.5 83.5t-22 79.5t-34.5 73t-46 65t-56.5 56.5t-65.5 46.5t-73 34.5t-79 22t-84 7.5zM512.5 -105q-106.5 0 -197.5 53t-143.5 143t-52.5 197q0 80 31.5 152.5t84 125t125 84
t152.5 31.5q107 0 197.5 -53t143 -143t52.5 -197t-52.5 -197t-143 -143t-197 -53zM512 664q-102 0 -188.5 -50.5t-137 -137t-50.5 -188.5t50.5 -188.5t137 -137t188.5 -50.5t188.5 50.5t137 137t50.5 188.5t-50.5 188.5t-137 137t-188.5 50.5zM670 490l-111 -188h87v-42
h-101v-57h101v-42h-101v-84h-53v84h-105v42h105v57h-105v42h90l-110 188h59q77 -140 94 -178h1q3 8 10.5 24t19.5 39l63 115h56z" />
    <glyph glyph-name="uniE64A" unicode="&#xe64a;" 
d="M512 736q-115 0 -215 -55q-18 25 -45.5 40t-59.5 15q-53 0 -90.5 -37.5t-37.5 -90.5q0 -32 15 -59.5t40 -45.5q-55 -100 -55 -215q0 -122 60 -225t163 -163t225 -60t225 60t163 163t60 225t-60 225t-163 163t-225 60zM128 608q0 27 18.5 45.5t45.5 18.5q32 0 51 -26
q-10 -7 -19 -16l-20 -16l-18 -18l-16 -20q-9 -9 -16 -19q-26 19 -26 51zM784 16q-55 -54 -125 -83t-147 -29t-147 29t-125 83q-27 28 -48 59.5t-35 65.5t-21.5 71.5t-7.5 75.5q0 77 29 147t83.5 124.5t124.5 83.5t147 29q31 0 61 -4.5t58 -14t55 -23t51.5 -31.5t46.5 -39
q27 -28 48 -59.5t35 -65.5t21.5 -71.5t7.5 -75.5q0 -156 -108 -268q-3 -2 -4 -4zM704 544q-203 -167 -240 -208t-144 -304q205 165 240 208q16 19 52 95.5t64 142t28 66.5z" />
    <glyph glyph-name="uniE64B" unicode="&#xe64b;" 
d="M512 -180q-129 0 -239.5 65t-175.5 175.5t-65 239.5t65 239.5t175.5 175.5t239.5 65t239.5 -65t175.5 -175.5t65 -239.5t-65 -239.5t-175.5 -175.5t-239.5 -65zM512 703q-110 0 -203 -53.5t-146.5 -146.5t-53.5 -203t53.5 -203t146.5 -146.5t203 -53.5t203 53.5
t146.5 146.5t53.5 203t-53.5 203t-146.5 146.5t-203 53.5zM467 140q0 -6 -6 -6l-13 -13q-6 -7 -19 -7t-19 7l-20 19q0 6 -6 6l-141 141q-5 5 -5 16t5 16l19 19q5 5 16.5 5t15.5 -5l135 -134l269 269q4 5 15.5 5t16.5 -5l19 -19q3 -3 4 -9.5t0 -13t-4 -9.5z" />
    <glyph glyph-name="uniE64C" unicode="&#xe64c;" 
d="M512 -180q-129 0 -239.5 65t-175.5 175.5t-65 239.5t65 239.5t175.5 175.5t239.5 65t239.5 -65t175.5 -175.5t65 -239.5t-65 -239.5t-175.5 -175.5t-239.5 -65zM512 703q-110 0 -203 -53.5t-146.5 -146.5t-53.5 -203t53.5 -203t146.5 -146.5t203 -53.5t203 53.5
t146.5 146.5t53.5 203t-53.5 203t-146.5 146.5t-203 53.5zM698 127l-13 -13q-5 -4 -13 -4t-13 4l-147 148l-141 -141q-5 -5 -13 -5t-12 5l-13 13q-5 4 -5 12t5 13l141 141l-148 141q-9 21 0 32l13 13q11 10 32 0l141 -148l141 141q3 3 8 4.5t9.5 0t7.5 -4.5l13 -13
q5 -4 5 -12t-5 -13l-141 -141l141 -141q19 -19 7 -32z" />
    <glyph glyph-name="uniE64D" unicode="&#xe64d;" 
d="M512 -180q-129 0 -239.5 65t-175.5 175.5t-65 239.5t65 239.5t175.5 175.5t239.5 65t239.5 -65t175.5 -175.5t65 -239.5t-65 -239.5t-175.5 -175.5t-239.5 -65zM512 703q-110 0 -203 -53.5t-146.5 -146.5t-53.5 -203t53.5 -203t146.5 -146.5t203 -53.5t203 53.5
t146.5 146.5t53.5 203t-53.5 203t-146.5 146.5t-203 53.5zM512 70q-14 0 -26 12t-12 26t12 26t26 12q22 0 34 -22q4 -8 4 -16q0 -14 -12 -26t-26 -12zM518 185h-12q-4 0 -6.5 4t-4.5 11.5t-2 16.5l-19 301q0 6 3.5 12t9.5 9.5t12 3.5h19q7 0 14.5 -3.5t12.5 -9.5t5 -12
l-19 -301q0 -14 -4 -23t-9 -9z" />
    <glyph glyph-name="uniE64E" unicode="&#xe64e;" 
d="M813 25l-39 -39q-19 -19 -38 0l-224 244l-218 -231q-4 -9 -15.5 -9t-16.5 9l-32 39q-9 19 0 38l212 224l-231 237q-19 19 0 38l39 39q4 5 15.5 3.5t16.5 -10.5l230 -237l218 231q4 9 15.5 9t16.5 -9l32 -39q9 -19 0 -38l-212 -224l231 -237q9 -19 0 -38z" />
    <glyph glyph-name="uniE64F" unicode="&#xe64f;" 
d="M851 -84q-62 0 -104.5 41.5t-42.5 99.5q0 59 43 103t104 44q59 0 103 -43t44 -104q-3 -38 -23 -70.5t-53 -51.5t-71 -19zM851 249q-9 9 0 0q-4 94 -48 169.5t-118 124.5q9 19 14 42t5 48q108 -54 175.5 -158t67.5 -226v-26q-23 14 -46.5 20t-49.5 6zM755 -110
q-53 -34 -115 -52t-128 -18q-33 0 -65.5 4.5t-63 13.5t-59.5 22.5t-55 29.5q50 31 70 71q90 -45 167 -45q90 0 172 51q29 -48 77 -77zM512 492q-38 0 -70.5 19t-51.5 51.5t-19 70.5q0 59 43 103t104 44q59 0 103.5 -43t44.5 -104q0 -60 -47 -100.5t-107 -40.5zM173 255
q-13 -2 -19.5 -3.5t-18 -4.5t-19 -6t-16.5 -7.5t-17 -10.5v26q0 127 65.5 228.5t177.5 155.5q0 -51 20 -90q-39 -19 -70.5 -48.5t-54.5 -66.5t-35.5 -81.5t-12.5 -91.5zM320 57q0 -38 -19 -70.5t-51.5 -51.5t-70.5 -19q-59 0 -103 43t-44 104q0 59 43 103t104 44
q59 -4 100 -48t41 -105z" />
    <glyph glyph-name="uniE650" unicode="&#xe650;" 
d="M512 -180q-129 0 -239.5 65t-175.5 175.5t-65 239.5t65 239.5t175.5 175.5t239.5 65t239.5 -65t175.5 -175.5t65 -239.5t-65 -239.5t-175.5 -175.5t-239.5 -65zM736 332l-192 6v199h-64v-205h-186q-6 0 -6 -6v-58q0 -6 6 -6h186v-205h58v211h185l5 2q2 2 2 4v58h6z" />
    <glyph glyph-name="uniE651" unicode="&#xe651;" 
d="M512 -180q-129 0 -239.5 65t-175.5 175.5t-65 239.5t65 239.5t175.5 175.5t239.5 65t239.5 -65t175.5 -175.5t65 -239.5t-65 -239.5t-175.5 -175.5t-239.5 -65zM749 518h-109v25q0 7 -3.5 13t-8.5 10.5t-12 6.5t-14 2h-180q-9 0 -18 -4t-14.5 -11.5t-5.5 -16.5v-25h-109
q-8 0 -13.5 -7t-5.5 -13q0 -19 19 -19h39v-416q0 -22 22 -34q8 -4 16 -4h320q22 0 34 22q4 9 4 16v416h39q19 0 19 19q0 6 -5.5 13t-13.5 7zM653 63h-275q-9 0 -14 5t-5 10l-1 4v378q0 11 5 16t10 4l5 -1h275h1t4 -1h4q3 -1 6 -2.5t5 -3.5t3.5 -5t1.5 -7v-378q-1 -4 -3 -7
t-4.5 -5t-5 -3.5t-4.5 -2.5h-4q-2 -1 -3 -1h-1zM442 422q0 19 -20 19q-14 0 -18 -16q-1 -2 -1 -3v-295q0 -19 19.5 -19t19.5 19v295zM531 422q0 12 -12 17q-4 2 -7 2t-7.5 -3.5t-8 -8t-3.5 -7.5v-295q0 -19 19 -19t19 19v295zM627 422q0 19 -19 19q-15 0 -19 -16v-3v-295
q0 -19 19 -19t19 19v295zM422 537h180v-19h-180v19z" />
    <glyph glyph-name="uniE652" unicode="&#xe652;" horiz-adv-x="1000" 
d="M500 -200q-102 0 -194.5 39.5t-159.5 106.5t-106.5 159.5t-39.5 194.5t39.5 194.5t106.5 159.5t159.5 106.5t194.5 39.5t194.5 -39.5t159.5 -106.5t106.5 -159.5t39.5 -194.5t-39.5 -194.5t-106.5 -159.5t-159.5 -106.5t-194.5 -39.5v0zM500 675q-102 0 -188.5 -50
t-136.5 -136.5t-50 -188.5t50 -188.5t136.5 -136.5t188.5 -50t188.5 50t136.5 136.5t50 188.5t-50 188.5t-136.5 136.5t-188.5 50zM688 237h-188q-26 0 -44 18.5t-18 44.5v187q0 26 18 44.5t44 18.5t44.5 -18.5t18.5 -44.5v-125h125q25 0 43.5 -18t18.5 -44t-19 -45
q-9 -9 -20 -13.5t-23 -4.5v0zM688 237z" />
    <glyph glyph-name="uniE653" unicode="&#xe653;" 
d="M642 -95v-11q0 -5 0.5 -11t0.5 -12q-1 -20 -10.5 -43t-37.5 -33q-11 -4 -28.5 -11.5t-53.5 -7.5q-30 0 -50 7t-31 9q-15 3 -23.5 13t-13 22t-5.5 24.5t-1 23.5v31zM863 570q26 -62 30 -117t-6 -101t-29.5 -82.5t-40 -64t-39 -45.5t-25.5 -24q-10 -9 -18.5 -13.5
t-15.5 -7.5t-13 -7.5t-12 -13.5q-13 -19 -20 -37.5t-13 -35.5q-5 -14 -11 -23t-13 -17q-8 -8 -16 -13h-224q-8 5 -15 13t-14.5 19t-12.5 28q-10 30 -24.5 47.5t-38.5 35.5q-16 12 -37 32t-41 47.5t-38.5 61.5t-29.5 75t-13 87t9 97q17 82 60 137t95.5 89t109 48.5
t102.5 14.5q48 0 99.5 -13t100 -41t88.5 -71.5t66 -104.5zM760 363q44 178 -114 271q-26 17 -61 26t-72 9t-73 -9t-64 -29q-69 -48 -93.5 -103.5t-22.5 -117.5q1 -35 11.5 -62.5t25.5 -50t30.5 -39t27.5 -29.5q26 -27 45 -47t31 -50q11 -30 35 -36.5t44 -6.5q26 0 50.5 12
t34.5 36q5 14 21 34.5t48 57.5q16 19 30.5 33t27.5 28.5t22.5 31t15.5 41.5z" />
    <glyph glyph-name="uniE654" unicode="&#xe654;" 
d="M753 663h-460q-95 0 -162.5 -67.5t-67.5 -162.5v-153q0 -95 67.5 -162.5t162.5 -67.5h38v-230l263 230h159q95 0 162.5 67.5t67.5 162.5v153q0 95 -67.5 162.5t-162.5 67.5z" />
    <glyph glyph-name="uniE655" unicode="&#xe655;" 
d="M832 -96v-64q0 -26 -19 -45t-45 -19h-512q-26 0 -45 19t-19 45v64q-80 0 -136 56t-56 136v192q0 80 56 136t136 56v256q0 26 19 45t45 19h512q26 0 45 -19t19 -45v-256q80 0 136 -56t56 -136v-192q0 -80 -56 -136t-136 -56zM256 -160h512v256h-512v-256zM768 736h-512
v-256h64v192h384v-192h64v256zM384 608v-128h256v128h-256zM768 352h-64v-64h64v64zM896 352h-64v-64h64v64zM896 160q0 26 -19 45t-45 19h-640q-26 0 -45 -19t-19 -45v-128h64v64q0 26 19 45t45 19h512q26 0 45 -19t19 -45v-64h64v128z" />
    <glyph glyph-name="uniE656" unicode="&#xe656;" 
d="M691 589q-39 -18 -76.5 -51.5t-63 -69t-45.5 -68t-29 -53.5l-10 -21l-57 96l-109 -64q35 -10 83 -46.5t90 -87.5q19 36 61 86t88.5 91t74.5 47q-9 23 -10.5 44.5t1 51.5t2.5 45zM845 243q38 77 38 160q0 73 -29.5 140.5t-79 116.5t-118.5 78.5t-144 29.5
q-61 0 -117.5 -18t-102 -51.5t-80 -78t-53 -100.5t-18.5 -117q0 -12 0.5 -24t2 -23.5t4 -23t5.5 -23t7 -22.5t9 -22l10 -22l-147 -256l192 -38l128 -141l134 237h26h26l134 -237l128 141l192 38zM346 -83q-45 45 -90 83q-28 9 -58.5 18.5t-47.5 14.5l-16 5l90 148
q85 -107 205 -135zM512 109q-125 0 -213 88t-88 212.5t88 212.5t213 88t213 -88t88 -212.5t-88 -212.5t-213 -88zM768 0q-13 -13 -26.5 -26t-24.5 -23t-20 -18t-14 -12l-5 -4l-76 134q119 28 204 135l90 -148q-3 0 -19.5 -5t-50.5 -15.5t-58 -17.5z" />
    <glyph glyph-name="uniE657" unicode="&#xe657;" 
d="M828 672h-632q-16 0 -31.5 -3.5t-28.5 -10t-25 -16t-21 -21t-16 -25t-10.5 -29t-3.5 -30.5v-498q0 -56 40 -95.5t96 -39.5h632q56 0 96 39.5t40 95.5v498q0 56 -40 95.5t-96 39.5zM196 582h632q19 0 32.5 -13.5t13.5 -31.5v-89h-724v89q0 18 13.5 31.5t32.5 13.5zM828 -6
h-632q-19 0 -32.5 13.5t-13.5 31.5v319h724v-319q0 -12 -6.5 -22.5t-16.5 -16.5t-23 -6z" />
    <glyph glyph-name="uniE658" unicode="&#xe658;" 
d="M932 670l-75 65l-16 -8q-46 -22 -93 -31t-81 -7.5t-67 10t-48 15t-27 13.5l-13 7l-13 -7q-9 -5 -21 -10.5t-35.5 -13.5t-51 -11t-60 -3t-71 9.5t-77.5 28.5l-16 8l-75 -65l9 -19q49 -99 49 -165q0 -4 -0.5 -8t-1 -9.5t-1.5 -10.5t-2.5 -13t-2.5 -12.5t-2 -14.5
q-23 -115 -23 -179q0 -188 149 -239q103 -36 154.5 -68.5t69.5 -58.5l22 -32l22 32q45 65 224 127q149 51 149 239q0 64 -23 179v1q-2 14 -3.5 21t-3.5 17.5t-2.5 17t-0.5 11.5q0 66 49 165zM870 654q-8 -16 -14.5 -34t-14.5 -41t-12.5 -47.5t-4.5 -45.5q0 -19 12 -76v-1
q4 -20 6 -31.5t5.5 -32t5.5 -35.5t3.5 -34.5t1.5 -36.5q0 -78 -28.5 -125t-87.5 -68q-53 -18 -96.5 -37.5t-76 -40t-54.5 -42.5l-3 -3l-3 3q-66 65 -227 120q-59 21 -87.5 68t-28.5 125q0 59 22 170q12 58 12 77q0 69 -46 168l-1 3l22 20l3 -2q54 -24 109 -32t99 -1.5
t72.5 15t51.5 20.5l2 1l2 -1q23 -12 51.5 -20.5t72.5 -15t99 1.5t109 32l3 2l22 -20zM280 99v299h-49v49h119v-254q26 9 61 32v-53q-44 -40 -131 -73v0zM301 489q-12 56 -42 116h65q28 -53 45 -116h-68zM408 533v49h359v-49h-121v-144h105v-49h-105v-196h131v-45h-397v45h59
v305h67v-305h66v389h-164zM408 533z" />
    <glyph glyph-name="uniE659" unicode="&#xe659;" 
d="M512 800q-104 0 -199 -40.5t-163 -109t-108.5 -163t-40.5 -199t40.5 -199t108.5 -163t163 -109t199 -40.5q83 0 161 26t141 73t110.5 110t73 141t25.5 162q0 104 -40.5 198.5t-108.5 163t-163 109t-199 40.5zM512 -159q-91 0 -174 35.5t-143 95.5t-95 142.5t-35 174
t35 174t95 142.5t143 95.5t174 35.5t174 -35.5t143 -95.5t95 -142.5t35 -174t-35 -174t-95 -142.5t-143 -95.5t-174 -35.5zM412 397q1 4 2.5 10.5t10 23t19.5 28.5t33.5 20.5t49.5 5.5q35 -4 53.5 -18t21 -31t0 -30.5t-7.5 -20.5q-4 -10 -30 -32.5t-53 -47.5t-33 -40
q-4 -10 -7 -24.5t-4.5 -27.5t-2 -24.5t-0.5 -18.5v-7h89q1 1 0 7.5t1.5 19t6 25t13.5 26t24 21.5q20 13 40.5 32.5t39.5 47.5t23.5 57.5t-7.5 61.5q-22 35 -44 56.5t-47 31.5t-47.5 13t-54.5 2q-64 -2 -113 -38.5t-67 -116.5zM463 129h93v-101h-93v101z" />
    <glyph glyph-name="uniE65A" unicode="&#xe65a;" 
d="M511 -155q-59 0 -115.5 15t-107.5 44t-93 71q-63 63 -97 144t-34 170t34 170t97.5 144t145 96.5t170.5 33.5q60 0 116.5 -15t107 -44.5t92.5 -70.5q86 -85 116 -199.5t0 -229t-116 -199.5q-42 -42 -92.5 -71t-107.5 -44t-116 -15v0v0zM511 675q-78 0 -149 -29.5
t-126 -83.5q-36 -37 -61.5 -80.5t-38.5 -92.5t-13 -100q0 -77 29 -147.5t84 -125.5q37 -36 81 -61.5t93 -38.5t101 -13q78 0 149 29t126 84q74 74 100.5 173.5t0 199t-100.5 173.5q-37 36 -81 61.5t-93 38.5t-101 13v0v0zM352 168q3 -4 7 -9.5t18.5 -19.5t31.5 -25t44.5 -20
t57.5 -9q17 0 34 2.5t31 7.5t27.5 11t24.5 13t20.5 14t16.5 13t12 11t7 8l3 3q2 0 4.5 -0.5t9.5 -2.5t12 -6t9 -12.5t4 -20.5q-1 -2 -4 -5.5t-13 -13.5t-21.5 -19t-30 -20.5t-39.5 -19.5t-49 -13.5t-58 -5.5q-41 0 -76.5 10t-56 24.5t-35.5 28.5t-21 24l-6 10v2q0 2 0.5 6.5
t2 8.5t4 8.5t6 8t10 6t13.5 2.5v0v0zM381 432q-22 0 -38 -16t-16 -38.5t16 -38.5t38.5 -16t38.5 16t16 38.5t-16 38.5t-39 16v0v0zM661 432q-22 0 -38 -16t-16 -38.5t16 -38.5t38.5 -16t38.5 16t16 38.5t-16 38.5t-39 16v0v0zM661 432z" />
    <glyph glyph-name="uniE65B" unicode="&#xe65b;" 
d="M512 800q-138 0 -256 -69t-187 -187t-69 -256t69 -256t187 -187t256 -69t256 69t187 187t69 256t-69 256t-187 187t-256 69zM512 -160q-122 0 -225.5 61t-163 164t-59.5 223q0 122 61 225.5t164 163t223 59.5q187 0 317.5 -130.5t130.5 -317.5t-130.5 -317.5
t-317.5 -130.5zM691 461l-237 -237l-121 122q-15 14 -36.5 14t-40.5 -14q-10 -19 -8.5 -41t14.5 -36l154 -154q14 -14 35 -14t35 14l276 275q15 16 16.5 35.5t-16.5 35.5q-15 14 -35.5 14t-35.5 -14z" />
    <glyph glyph-name="uniE65C" unicode="&#xe65c;" 
d="M512 800q-138 0 -256 -69t-187 -187t-69 -256t69 -256t187 -187t256 -69t256 69t187 187t69 256t-69 256t-187 187t-256 69zM512 -160q-122 0 -225.5 61t-163 164t-59.5 223q0 182 133 315t315 133q187 0 317.5 -130.5t130.5 -317.5t-130.5 -317.5t-317.5 -130.5z
M736 314h-192v268q0 12 -4.5 22t-11.5 16t-16.5 10t-18.5 4q-23 0 -37 -15.5t-14 -36.5v-326q0 -24 13.5 -37.5t37.5 -13.5h249q24 0 38 13.5t14 37.5t-17 41t-41 17z" />
  </font>
</defs>
</svg>
